<svg xmlns="http://www.w3.org/2000/svg" viewBox="0 0 901.88 195.61"><defs><style>.cls-1,.cls-2{fill:#ad213f;}.cls-2{font-size:150.35px;font-family:Montserrat-ExtraBold, Montserrat;font-weight:800;}.cls-3{font-family:Montserrat-Regular, Montserrat;font-weight:400;}.cls-4{fill:#fff;}</style></defs><g id="Layer_2" data-name="Layer 2"><g id="Layer_1-2" data-name="Layer 1"><path class="cls-1" d="M894.58,31.36H870.51V7.3a7.3,7.3,0,0,0-7.3-7.3H853a7.3,7.3,0,0,0-7.3,7.3V31.36H821.65a7.3,7.3,0,0,0-7.3,7.3v10.2a7.3,7.3,0,0,0,7.3,7.3h24.07V80.22a7.29,7.29,0,0,0,7.3,7.3h10.19a7.29,7.29,0,0,0,7.3-7.3V56.16h24.07a7.3,7.3,0,0,0,7.3-7.3V38.66A7.3,7.3,0,0,0,894.58,31.36Z"/><text class="cls-2" transform="translate(0 155.32)"><tspan xml:space="preserve">Blo  d </tspan><tspan class="cls-3" x="498.99" y="0">Plus</tspan></text><path class="cls-1" d="M307,47.21c3.46,9.55,8.85,17.9,14.44,26.15,4,5.87,8.44,11.41,12.22,17.42a78.54,78.54,0,0,1,9.9,21.73c6,22.69-9.62,42.23-28.42,46-20.37,4.11-39.79-7.58-45-27.4-2-7.66-1.18-15.19,1.29-22.61a79.81,79.81,0,0,1,12-22.18,248.42,248.42,0,0,0,16.74-24.82,84.29,84.29,0,0,0,6.58-13.92A2,2,0,0,1,307,47.21Z"/><path class="cls-4" d="M293.8,86.24a72.53,72.53,0,0,0-16.16,29.26c-.87,3.11,4,4.43,4.82,1.33a66.92,66.92,0,0,1,14.87-27c2.16-2.38-1.37-5.93-3.53-3.54Z"/><path class="cls-4" d="M278.93,131l1.37,1.83a1.87,1.87,0,0,0,.64.7,1.94,1.94,0,0,0,.85.45,1.89,1.89,0,0,0,1,0,1.85,1.85,0,0,0,.93-.29l.5-.4a2.52,2.52,0,0,0,.65-1.1l.09-.66a2.58,2.58,0,0,0-.35-1.27l-1.36-1.82a2,2,0,0,0-.65-.7,1.89,1.89,0,0,0-.85-.45,1.85,1.85,0,0,0-1,0,1.79,1.79,0,0,0-.93.29l-.51.39a2.53,2.53,0,0,0-.64,1.11l-.09.66a2.43,2.43,0,0,0,.34,1.26Z"/></g></g></svg>