<svg xmlns="http://www.w3.org/2000/svg" viewBox="0 0 163.56 202.38"><defs><style>.cls-1{fill:#fc7a7a;}.cls-2{fill:#cf3030;}.cls-3{fill:#b71515;}.cls-4{fill:#fdabab;}.cls-5{fill:#782121;}.cls-6{fill:#faa;}</style></defs><g id="Layer_2" data-name="Layer 2"><g id="line"><path class="cls-1" d="M36.64,2c-1.54-.29-4.23,1.34-4.17,3-.28,7.71-.62,15-2.29,22.55-3.38,18.18-11,36.89-17.8,54-5.87,14.8-9.77,29.25-10.3,45.22C1.14,141,4.9,157.58,13.6,169.17c12,16.36,32.31,26.51,52,29.87a120.24,120.24,0,0,0,21.59,1.64c10.41-.45,21.22-2.16,30.94-6.16,16.3-6.26,30.25-20.28,37.08-36.33,4.62-10.37,6.5-22.81,6.25-34.13.3-21.71-8-42.62-20.94-59.88a155.69,155.69,0,0,0-23.76-25.7A188.35,188.35,0,0,0,59,6.47C51.86,4.27,44.24,1.76,36.64,2Z"/><path class="cls-2" d="M13.87,153c-6.29-18-2.51-45.51,5.57-65.72s21.26-41.07,22-63.83c.33-10.57-2.92-11.9,12.8-7.41S103,34.2,125,60.25s32.16,50.54,28.56,77.49-23.8,53.46-61.09,57C56.57,198.25,23.3,179.07,13.87,153Z"/><path class="cls-3" d="M40.1,177c11.43,10.23,42.58,17.54,63.86,11.63,16.85-4.68,24.86-16.64,19.68-13.87-7.42,4-13.85,8.41-26.06,9.59-13.57,1.32-38.1-2.91-50.69-11.05C39,168.19,34.08,171.59,40.1,177Z"/><path class="cls-4" d="M27.77,88.86c-2.08-5,1.88-10.43,4.9-16.07a103.86,103.86,0,0,0,7.76-21.38c.92-4.74,4.48-7,7.35-1.7s.94,17.34-1.68,26S36.06,99.1,27.77,88.86Z"/><path class="cls-4" d="M42.4,33.67a5.51,5.51,0,0,1,7.94-4.13c3.36,1.87,3.34,5.09,2.54,7.63S49.07,41,46.21,40.34,41.92,37.19,42.4,33.67Z"/><path class="cls-5" d="M34.46.42a5.7,5.7,0,0,0-4,3.45,10.47,10.47,0,0,0-.32,4.52c.71,9.08-.24,23.73-9.57,47.54C11.67,78.66-.29,99.91,0,133.88c.18,21.46,10.63,39.67,27.62,51.84s40.48,18.38,67,16.25c25-2,44.2-13.65,55.88-30.91s15.85-40.07,11.3-64.41c-5.7-30.45-25.18-54.08-46.43-71.07S71.06,8.19,57.72,4.15C45,.3,38.5-.67,34.46.42Zm.89,3.28c2.46-.66,8.86-.09,21.38,3.71,12.83,3.88,35.64,14.17,56.48,30.83s39.71,39.65,45.2,69c4.42,23.6.34,45.47-10.77,61.89s-29.22,27.47-53.33,29.41c-25.78,2.08-48.47-4-64.7-15.62s-26-28.72-26.21-49.1c-.28-33.16,11.33-53.66,20.35-76.68C33.22,33,34.29,17.72,33.53,8.12A8.71,8.71,0,0,1,33.68,5C33.91,4.37,34.12,4,35.35,3.7Z"/><path class="cls-6" d="M106.23,140.7a2,2,0,0,1-.94,1.67,6.06,6.06,0,0,1-1.35.76,20.43,20.43,0,0,1-3.46,1.06,21.07,21.07,0,0,1-3.56.46,5.71,5.71,0,0,1-1.5-.13,1.92,1.92,0,0,1-1.53-1.29c-.14-.47-.42-1.56-.84-3.2s-1-3.71-1.54-5.81-1.18-4.24-1.73-6a24.34,24.34,0,0,0-1.07-2.88c-.71,0-2.72-.07-5.44,0-1.59,0-3.18.11-4.3.22a7.53,7.53,0,0,0-1,.16c0,.13,0,.18-.07.35-.1.55-.24,1.27-.4,2.09-.33,1.65-.78,3.76-1.25,5.9s-1,4.32-1.41,6.09A25.76,25.76,0,0,1,73.77,144a2.46,2.46,0,0,1-1.62,1.32,7.19,7.19,0,0,1-1.91.34,24.75,24.75,0,0,1-4.53-.26,26.85,26.85,0,0,1-4.27-.92,8,8,0,0,1-1.57-.65,2.69,2.69,0,0,1-.68-.55,1.69,1.69,0,0,1-.41-1.37c.21-1.37,1.39-8.65,2.26-11.81l.37-1.33,4.86-27.3.33-1.34c.86-3.58,1.48-6.12,1.9-7.95.58,0,1.15,0,1.71,0q.57,0,1.14,0c-.41,1.77-1,4.3-1.92,8,0,.22-.1.43-.15.66L69,102.12,64.07,129.5l-.08.28-.29,1.05c-.7,2.53-1.76,8.87-2.06,10.76a4.37,4.37,0,0,0,.64.26,23.39,23.39,0,0,0,3.81.81,21.41,21.41,0,0,0,4,.24,4.77,4.77,0,0,0,1.2-.2l0,0c.17-.47.53-1.73.89-3.19.43-1.74.93-3.89,1.4-6s.9-4.24,1.24-5.87c.16-.82.3-1.52.4-2s.14-.89.15-.89a1.72,1.72,0,0,1,0-.24,1.63,1.63,0,0,1,.79-1,2.72,2.72,0,0,1,.76-.3,10.57,10.57,0,0,1,1.7-.28c1.28-.13,2.92-.21,4.54-.24,3.24-.06,6.45,0,6.45,0h.76l.39.65a11.72,11.72,0,0,1,.88,2c.22.63.46,1.34.71,2.14.57,1.82,1.19,4,1.76,6.11s1.13,4.22,1.55,5.85c.35,1.33.54,2.06.67,2.52a3.11,3.11,0,0,0,.48,0,16.77,16.77,0,0,0,3-.4,18.48,18.48,0,0,0,3-.88,3.56,3.56,0,0,0,.55-.3,2.22,2.22,0,0,0-.06-.36c-.07-.45-.19-1-.33-1.67-.28-1.31-.68-2.93-1.08-4.53s-.83-3.18-1.16-4.39c-.17-.61-.31-1.11-.43-1.48s-.19-.49-.21-.56h0l-.34-.62-.29-.49L89.05,99.81l-.69-1.19c-.2-.34-.42-.69-.64-1.07s-.64-1.06-1-1.63c.49.19,1,.38,1.47.58.94.39,1.87.78,2.8,1.19l.44.72,10.49,26.42.68,1.2a3.75,3.75,0,0,1,.39,1c.13.41.28,1,.45,1.56.35,1.25.77,2.84,1.17,4.45s.81,3.26,1.1,4.62q.23,1,.36,1.77A6.69,6.69,0,0,1,106.23,140.7Z"/><path class="cls-6" d="M88.32,97.45l-.6.1c-.31-.51-.64-1.06-1-1.63-.73-1.22-1.57-2.52-2.39-3.78a37.51,37.51,0,0,0-3.8-5h0a7.49,7.49,0,0,0-1.39-.32,17,17,0,0,0-3,0,14.28,14.28,0,0,0-2.84.44,3.86,3.86,0,0,0-.73.27A12.22,12.22,0,0,0,72,89.29l-.68,2.88c-.41,1.77-1,4.3-1.92,8a1.69,1.69,0,0,1-.79-.56c.34-2,1-5,1.57-7.42l.36-1.6A25.26,25.26,0,0,1,72.16,86c1.64-1,4.15-.88,6-1a5.43,5.43,0,0,1,3.39.84c1.94,2,3.51,5.07,5.11,7.33a22.79,22.79,0,0,1,1.53,3.37A2.31,2.31,0,0,1,88.32,97.45Z"/><path class="cls-6" d="M76.51,124.44c-.41,2.84-1.23,7.87-1.81,10.68s-1.78,5.67-2.73,8.3a11.17,11.17,0,0,1-4.11.64,26.53,26.53,0,0,1-6.79-1.45c-.72-.78,0-3.42,0-4.34a63.76,63.76,0,0,1,1.62-8c.41-.16.83-.34,1.25-.53l-.29,1.05c-.7,2.53-1.76,8.87-2.06,10.76a4.37,4.37,0,0,0,.64.26,23.39,23.39,0,0,0,3.81.81,21.41,21.41,0,0,0,4,.24,4.77,4.77,0,0,0,1.2-.2l0,0c.17-.47.53-1.73.89-3.19.43-1.74.93-3.89,1.4-6s.9-4.24,1.24-5.87c.16-.82.3-1.52.4-2s.14-.89.15-.89a1.72,1.72,0,0,1,0-.24A2.44,2.44,0,0,1,76.51,124.44Z"/><path class="cls-6" d="M104.22,141.14c-1.22.93-3.23,1.22-4.68,1.61a11.7,11.7,0,0,1-4,0c-1.36-4.48-2.28-9-3.65-13.47,0-.65-1-3.55-.23-4,.22.63.46,1.34.71,2.14.57,1.82,1.19,4,1.76,6.11s1.13,4.22,1.55,5.85c.35,1.33.54,2.06.67,2.52a3.11,3.11,0,0,0,.48,0,16.77,16.77,0,0,0,3-.4,18.48,18.48,0,0,0,3-.88,3.56,3.56,0,0,0,.55-.3,2.22,2.22,0,0,0-.06-.36c-.07-.45-.19-1-.33-1.67-.28-1.31-.68-2.93-1.08-4.53s-.83-3.18-1.16-4.39c-.17-.61-.31-1.11-.43-1.48s-.19-.49-.21-.56h0l-.34-.62a5.09,5.09,0,0,1,1.46.17c1.08,3.19,1.84,6.7,2.64,10C104,137.65,104.53,140.34,104.22,141.14Z"/><path class="cls-5" d="M106.07,139.45q-.13-.75-.36-1.77c-.29-1.36-.69-3-1.1-4.62s-.82-3.2-1.17-4.45c-.17-.61-.32-1.15-.45-1.56a3.75,3.75,0,0,0-.39-1l-.68-1.2L91.43,98.41,91,97.69l-.27-.47c-1-1.74-2.55-4.26-4.08-6.59A31.6,31.6,0,0,0,82.35,85a4.6,4.6,0,0,0-2.92-1,19.82,19.82,0,0,0-3.54,0,19.28,19.28,0,0,0-3.38.54,6.09,6.09,0,0,0-1.37.53A2.22,2.22,0,0,0,70,86.3a15.1,15.1,0,0,0-.66,2.36c-.16.73-.42,1.83-.83,3.52s-1,4.37-1.9,7.95l-.33,1.34-4.86,27.3L61,130.1c-.87,3.16-2,10.44-2.26,11.81a1.69,1.69,0,0,0,.41,1.37,2.69,2.69,0,0,0,.68.55,8,8,0,0,0,1.57.65,26.85,26.85,0,0,0,4.27.92,24.75,24.75,0,0,0,4.53.26,7.19,7.19,0,0,0,1.91-.34A2.46,2.46,0,0,0,73.77,144a25.76,25.76,0,0,0,1.11-3.85c.45-1.77.94-3.93,1.41-6.09s.92-4.25,1.25-5.9c.16-.82.3-1.54.4-2.09,0-.17,0-.22.07-.35a7.53,7.53,0,0,1,1-.16c1.12-.11,2.71-.19,4.3-.22,2.72-.06,4.73,0,5.44,0a24.34,24.34,0,0,1,1.07,2.88c.55,1.75,1.16,3.88,1.73,6s1.12,4.18,1.54,5.81.7,2.73.84,3.2a1.92,1.92,0,0,0,1.53,1.29,5.71,5.71,0,0,0,1.5.13,21.07,21.07,0,0,0,3.56-.46,20.43,20.43,0,0,0,3.46-1.06,6.06,6.06,0,0,0,1.35-.76,2,2,0,0,0,.94-1.67A6.69,6.69,0,0,0,106.07,139.45ZM90.43,122.61h-.76s-3.21-.08-6.45,0c-1.62,0-3.26.11-4.54.24a10.57,10.57,0,0,0-1.7.28,2.72,2.72,0,0,0-.76.3,1.63,1.63,0,0,0-.79,1,1.72,1.72,0,0,0,0,.24s-.06.41-.15.89-.24,1.23-.4,2c-.34,1.63-.78,3.74-1.24,5.87s-1,4.27-1.4,6c-.36,1.46-.72,2.72-.89,3.19l0,0a4.77,4.77,0,0,1-1.2.2,21.41,21.41,0,0,1-4-.24,23.39,23.39,0,0,1-3.81-.81,4.37,4.37,0,0,1-.64-.26c.3-1.89,1.36-8.23,2.06-10.76l.29-1.05.08-.28L69,102.12l.32-1.34c0-.23.11-.44.15-.66.9-3.65,1.51-6.18,1.92-8L72,89.29a12.22,12.22,0,0,1,.49-1.82,3.86,3.86,0,0,1,.73-.27,14.28,14.28,0,0,1,2.84-.44,17,17,0,0,1,3,0,7.49,7.49,0,0,1,1.39.32h0a37.51,37.51,0,0,1,3.8,5c.82,1.26,1.66,2.56,2.39,3.78.36.57.69,1.12,1,1.63s.44.73.64,1.07l.69,1.19,10.46,26.38.29.49.34.62h0c0,.07.13.32.21.56s.26.87.43,1.48c.33,1.21.76,2.79,1.16,4.39s.8,3.22,1.08,4.53c.14.65.26,1.22.33,1.67a2.22,2.22,0,0,1,.06.36,3.56,3.56,0,0,1-.55.3,18.48,18.48,0,0,1-3,.88,16.77,16.77,0,0,1-3,.4,3.11,3.11,0,0,1-.48,0c-.13-.46-.32-1.19-.67-2.52-.42-1.63-1-3.72-1.55-5.85s-1.19-4.29-1.76-6.11c-.25-.8-.49-1.51-.71-2.14a11.72,11.72,0,0,0-.88-2Z"/><path class="cls-6" d="M103.35,139.94c-.07-.45-.19-1-.33-1.67-.28-1.31-.68-2.93-1.08-4.53s-.83-3.18-1.16-4.39c-.17-.61-.31-1.11-.43-1.48s-.19-.49-.21-.56h0l-.34-.62-.29-.49L89.05,99.81l-.69-1.19c-.2-.34-.42-.69-.64-1.07s-.64-1.06-1-1.63c-.73-1.22-1.57-2.52-2.39-3.78a37.51,37.51,0,0,0-3.8-5h0a7.49,7.49,0,0,0-1.39-.32,17,17,0,0,0-3,0,14.28,14.28,0,0,0-2.84.44,3.86,3.86,0,0,0-.73.27A12.22,12.22,0,0,0,72,89.29l-.68,2.88c-.41,1.77-1,4.3-1.92,8,0,.22-.1.43-.15.66L69,102.12,64.07,129.5l-.08.28-.29,1.05c-.7,2.53-1.76,8.87-2.06,10.76a4.37,4.37,0,0,0,.64.26,23.39,23.39,0,0,0,3.81.81,21.41,21.41,0,0,0,4,.24,4.77,4.77,0,0,0,1.2-.2l0,0c.17-.47.53-1.73.89-3.19.43-1.74.93-3.89,1.4-6s.9-4.24,1.24-5.87c.16-.82.3-1.52.4-2s.14-.89.15-.89a1.72,1.72,0,0,1,0-.24,1.63,1.63,0,0,1,.79-1,2.72,2.72,0,0,1,.76-.3,10.57,10.57,0,0,1,1.7-.28c1.28-.13,2.92-.21,4.54-.24,3.24-.06,6.45,0,6.45,0h.76l.39.65a11.72,11.72,0,0,1,.88,2c.22.63.46,1.34.71,2.14.57,1.82,1.19,4,1.76,6.11s1.13,4.22,1.55,5.85c.35,1.33.54,2.06.67,2.52a3.11,3.11,0,0,0,.48,0,16.77,16.77,0,0,0,3-.4,18.48,18.48,0,0,0,3-.88,3.56,3.56,0,0,0,.55-.3A2.22,2.22,0,0,0,103.35,139.94ZM85.49,111.66,77.25,113a1.47,1.47,0,0,1-1.73-1.32l-.1-1.15.51-9.83,0-.43.12-.93A44,44,0,0,1,77,94.86a1.77,1.77,0,0,1,1.16-1.08,1.26,1.26,0,0,1,.92.15,2.16,2.16,0,0,1,.6.43,10.3,10.3,0,0,1,.89,1,7.93,7.93,0,0,1,1.54,2.57l.14.46.25.85,3.88,9.61.25,1A1.47,1.47,0,0,1,85.49,111.66Z"/><path class="cls-5" d="M86.67,109.85l-.25-1-3.88-9.61-.25-.85-.14-.46a7.93,7.93,0,0,0-1.54-2.57,10.3,10.3,0,0,0-.89-1,2.16,2.16,0,0,0-.6-.43,1.26,1.26,0,0,0-.92-.15A1.77,1.77,0,0,0,77,94.86a44,44,0,0,0-.94,4.52l-.12.93,0,.43-.51,9.83.1,1.15A1.47,1.47,0,0,0,77.25,113l8.24-1.38A1.47,1.47,0,0,0,86.67,109.85Zm-8.52.36.52-9.13.17-1.36a15.28,15.28,0,0,1,.32-1.51c.09.15.34.52.34.52l.39,1.32,3.9,9.14Z"/><path class="cls-5" d="M71.31,142.68l.07,0a.77.77,0,0,0-.11.16A.62.62,0,0,0,71.31,142.68Z"/></g></g></svg>