<svg xmlns="http://www.w3.org/2000/svg" viewBox="0 0 165.32 362.91"><defs><style>.cls-1{fill:#c8b7b7;}.cls-2{fill:#fc7a7a;}.cls-3{fill:#c83737;}.cls-4{fill:#cf3030;}.cls-5{fill:#b71515;}.cls-6{fill:#fdabab;}.cls-7{fill:#f84343;}.cls-8{fill:#faa;}.cls-9{fill:#782121;}.cls-10{fill:#661c1c;}</style></defs><g id="Layer_2" data-name="Layer 2"><g id="ground_shadow"><path class="cls-1" d="M40.8,352.6c10.91-3.64,60.32-3.33,73.35-2.42,9.38.65,35-.4,43.34,6.36,5.57,4.51-29.7,6.37-59.71,6.37S26,360.18,40.8,352.6Z"/></g><g id="color"><path class="cls-2" d="M33.4,4.38c.12,12.43-5,25.52-8.8,37.12C18.18,60.21,10.07,78,4.6,97c-3.13,11.68-2.69,25.08-2.09,37,2.59,21.26,15.93,42.13,34.06,53.62,13.29,8.6,30.39,13.25,46.16,14,22.07,1.21,45.37-6.07,61.16-22,13.3-13.08,19.64-33.67,19.25-52.07.34-22.95-8-46.33-21.67-64.75-17.39-23.44-41.81-41.25-69-51.79C62,7.26,51.17,3,39.91,1.92,36.33,1.64,33.17,2.42,33.4,4.38Z"/><path class="cls-2" d="M95.24,242.75c-1.32,5.83-1.67,12-4,17.48-3.84,1.06-6.91.62-10.59-.78-1.2-.66-.38-4.42,0-6.48.28-2.53.71-4,.53-5-1.94.24-8.63,1.08-10.29,2-.22,15.18-.38,31-3.33,45.94-2.37,13.38-4,27.19-7.27,40.39-1.45,4.12-5.42,4.66-7.77,8.18-1.25,1.77-3.91,6.35-3,8.63,3,2.55,8.65,2.86,12.31,3.45,8.25.46,16.94.76,25-1.41,2.71-1,3.25-6,4.11-8.2,3.48-19,4.66-36.66,8.76-55.5a6.8,6.8,0,0,1,8-5.12c1,.39,2.5.07,2.08,1.21-2.5-.21-5.72,0-7.89,1.41a112.78,112.78,0,0,1,1.77,14.28c1.85,16.55,1.61,32.87,3,49.46.65,1.56,4.84,2.56,6.26,3.11a116,116,0,0,0,27-.1c2.21-.77,6.68-2.05,7.4-4.81-.31-3.87-4-5.87-6.55-8.29-2.46-2-6.28-4.76-5.45-8.37.66-14.62-2-29.94-3.61-44.44-1.34-12.91-2.2-26-4.85-38.73-.74-2.36-.77-6.34-2.53-8.18a7.64,7.64,0,0,1-5.94,2c.76,2.87,3.2,8,2.79,12.09-1.86,2.19-4.47,2.7-7.14,3-1.57.32-2.79-1.83-3-3.41-1.83-5.16-2.29-9.75-4.65-14.6C103.37,242.16,98.27,241.84,95.24,242.75Z"/><path class="cls-2" d="M105,200.29c-9.54,1.63-20.64,1-30.29,1.12-8,7.19-15.2,18.36-16.84,29.08-.91,5.57,2,14,7.29,16.64,7.39,4,17.54.93,24.4-2.82,8.83-4.94,15.88-14.49,24.68-19.5,1.1-.45,1-2.51-.63-3.85-6.79-4.4-16.84-2.2-23.46,1.27-5.31,2.73-9.33,9.49-15.56,9.89-2.3-.93-4.59-4-3-6.73.81-1.6,3.25-1.85,2.65-3.95a47.13,47.13,0,0,0-2-9.84c2.11-.65,1.72,1,2,2.83,1,2.21.62,5.76,1.46,7.94,1.73,1.16,4.94-1.5,6.81-1.47,1.83-.64,4.68-1.59,5-3.08,1.08-3.29,1-7.5,2.75-10.53,2.65-2,5.63-.83,8.71-.61,4.2,2.71,5.66,7.36,7.65,10.89,1.33.51,6.86,2.41,8.23,1.91-.68-2.55-2.23-4.49-3.68-6.7-1-1.42-2.33-3.74-4.85-4.9,2.93-.22,4.47,3.34,6.6,5.94a21.09,21.09,0,0,1,4.12,8.56,27.69,27.69,0,0,1,4.3,3.71c-1.67-.15-2.58-1.49-4.43-1-5.27.73-9.33,5.47-13.33,8.62a37.94,37.94,0,0,0-4.44,4.92c6.06,2.79,18,7.74,24.58,4.42,4.28-1.55,6.41-9.26,5.9-13.36C128.78,219,120.25,210,111.82,204,109.51,202.58,107.82,200.38,105,200.29Z"/><path class="cls-2" d="M85.4,220.09c-3.94.58-11.05,4.11-13.41,7.57.18,1.9,5,2,6,1.46,2.65-1.5,9.59-5.53,11.83-7.54C89.89,221.13,85.75,220.05,85.4,220.09Z"/></g><g id="shadow"><path class="cls-3" d="M77.68,229.07c-2.73-1.82.21-3.86,2-4.94,1.65-1,6.4-1.56,7.31-.95S78.59,229.37,77.68,229.07Z"/><path class="cls-4" d="M11.1,131.34c-1.65-22.68,4.21-42.4,13.22-62.61C33,49.25,41.76,30.13,42,21c.31-10.88,30,0,45.08,7.52,30.75,15.27,68.21,57.25,69.19,97.26.91,37.15-25.52,67.68-63.1,69.19S14.3,175.38,11.1,131.34Z"/><path class="cls-4" d="M75,223.2c-.22-4.51.43-8.15-1-7s-7.07,10.82-2.68,15.86,10.4,0,13.29-2.57,12-7.4,18.76-7.18,7.07,1.39,7.07,2.14-3.54.43-9.33,5.25-19.61,18.22-31.18,14-7.5-17.15-6.75-19.72a60.81,60.81,0,0,1,6.86-13.28c2.89-4.08,5.14-7.18,7-8.15s13.72,1.07,17.36-.43,6.65-2,8.79-1.39,12.43,7.61,17.58,15.43,7.5,13.4,5.46,18.54-6.75,5.79-10.82,5.14S103.8,235.52,103,235s4.18-5.25,5.89-6.75,4.18-.86,6.75-.32,6.65.86,5.15-1.71-2.79-1-3.65-2.36a13.1,13.1,0,0,0-7.18-4.93c-3.21-.64-8-1.72-11.46-.32s-5.25,3.21-6.76,2.46a11.3,11.3,0,0,0-9.1-1A44.38,44.38,0,0,0,75,223.2Z"/><path class="cls-4" d="M64.48,352.43c-4.79-.28-9.65-1.29-8.15-4.93s7.29-7.72,9-9.64c2.12-2.39,9-49.3,9.22-54,.64-13.5,1.29-29.79.43-33.86-.23-1.07,4.5-.86,7.5-1.93s8.79-4.29,10.07-5.79,6.65-4.5,6.65-4.5,7.5,3.86,10.93,5.36,10.07,0,10.5.64,4.07,14.36,4.93,23.58,1.5,14.14,1.5,17.35,2.78,21.87,3,28.08.86,22.5.86,25.72,7.92,4.07,7.5,9.21-25.94,4.51-26.58,1.08S111,332.93,110.55,325s-3.64-35.58-3.85-37.08,5.78,0,4.5-3.22-12.45-2.25-13.5.22c-1.29,3-4.5,17.14-6,28.5C91,318.54,86.55,341.5,84.84,349,84.19,351.84,72,352.87,64.48,352.43Z"/><path class="cls-5" d="M93.31,278.63c-4.13-5.4,4.13-5.08,12.07-9.53s6.75-20.43,7.73-24.82c.63-2.85,6.11-.79,8.47,14.34,1,6.4,1.27,11.75-.32,14.29S102.2,282.12,93.31,278.63Z"/><path class="cls-5" d="M59.48,182.43c13.38,8.49,45.34,10.27,63.57-2.21,14.23-9.74,14.45-22.36,11.29-18.1-6.55,8.85-12.4,12.16-21.63,16-12,5-34.86,4.34-48-1.29C56.09,173.1,52.66,178.1,59.48,182.43Z"/><path class="cls-5" d="M71.29,349.49c3.9,2.32,12.19-1.08,12.56-3,1-5.23,2.83-13.3,1.88-15.19-1.91-3.79-3.75,6.38-6.38,9.75S68.25,347.68,71.29,349.49Z"/><path class="cls-5" d="M113.66,332.8c-1.31,5.1-.93,12.38.94,13.88s12,3,11.25.75-5.62-1.13-7.5-4.5S114.68,328.86,113.66,332.8Z"/><path class="cls-5" d="M75.79,202.12c4.69,4.68,15.56,4.87,18.94,4.5s11.62-3,11.43-4.69-2.62-1.69-2.62-1.69-8.25,2.06-14.63,1.88S75.79,202.12,75.79,202.12Z"/></g><g id="hi"><path class="cls-6" d="M26.52,88.19c-.44-4.13,5.7-16.33,7.45-21.89s3.44-12.07,5.5-15.25,7.63-3.59,7.94,3.81c.38,8.66-1.24,22.22-7.09,33C36.89,94.15,27.55,97.79,26.52,88.19Z"/><path class="cls-6" d="M43.76,33.58c1.17-2.66,5.18-3.78,8.58-1.59A5.77,5.77,0,1,1,45,40.89C42.1,38.44,42.89,35.58,43.76,33.58Z"/><path class="cls-7" d="M50.58,144.56a3.65,3.65,0,0,1-2.11,2.87,9.09,9.09,0,0,1-4.78,1c-3.68-.2-6.56-2.25-6.43-4.57s3.21-4,6.89-3.84S50.71,142.24,50.58,144.56Z"/><ellipse class="cls-7" cx="140.48" cy="144.91" rx="6.67" ry="4.21" transform="translate(-14.61 15.75) rotate(-6.1)"/><path class="cls-6" d="M77.75,276.57c-.16-3.5.79-7.79,2.22-7.47S82,274.66,81.88,277s-.64,7-2.07,7S77.75,280.22,77.75,276.57Z"/><path class="cls-6" d="M74.56,304.69c.45-2.13,1.57-2.36,2.24-1.35a4,4,0,0,1-.78,4.27C75,308.4,74.22,306.26,74.56,304.69Z"/><path class="cls-6" d="M129,342.65c-.67-1.8-.33-3.93,1.35-3.15a4.06,4.06,0,0,1,2,4.38C132.05,345.34,130.26,345,129,342.65Z"/><path class="cls-6" d="M64.11,230c.12-2.35,1.69-3.59,2.59-2a3.73,3.73,0,0,1-.45,4.61C65,233.83,64.11,231.7,64.11,230Z"/><path class="cls-8" d="M96.48,206c-1.7.14-4,0-5.54.95a23.58,23.58,0,0,0-1.47,4.21c-.51,2.29-1.4,6-1.78,8.35.45.7,2.42.92,3.11,1.17a5.61,5.61,0,0,0,4.51-1c.43-1.23.62-3.19,1.57-4.17,1.06-.43,1,.9,1.67,1.47.5.54,1.18,1.78,2.1,1.35,1.46-.3,3.8-.57,5.23-.79.11-1-1.11-3.16-1.53-4-1.48-2.09-2.94-4.92-4.72-6.77A5,5,0,0,0,96.48,206Z"/><path class="cls-8" d="M88.73,244.81c-2,1.07-4.42,2.25-6.51,3.11a59.41,59.41,0,0,0-1.49,7.35c0,.85-.71,3.3,0,4A24.86,24.86,0,0,0,87,260.63a10.42,10.42,0,0,0,3.81-.59c.88-2.43,1.88-5.17,2.51-7.67s1.31-7.26,1.68-9.88C93.35,242.07,90.53,244.06,88.73,244.81Z"/><path class="cls-8" d="M109.05,243.19c-.78.37.13,3.15.17,3.78,1.27,4.15,2.11,8.3,3.37,12.44a10.71,10.71,0,0,0,3.66,0c1.35-.35,3.21-.62,4.33-1.49.3-.74-.24-3.22-.28-4-.75-3-1.46-6.28-2.45-9.23-1.15-.36-3,.06-4.21-.27C112.25,244.23,110.4,243.51,109.05,243.19Z"/><path class="cls-8" d="M98.84,239.69c-.53.3-1.49.73-1.25,1.41a8.81,8.81,0,0,0,3,0c.67-.54-.41-1-.85-1.15A2.22,2.22,0,0,0,98.84,239.69Z"/></g><g id="line"><path class="cls-9" d="M35.24.38a5.47,5.47,0,0,0-3.1,1.91A4.8,4.8,0,0,0,31.41,6c.44,2.5,0,6.85-1.34,12.25s-3.36,11.92-5.85,19.05c-5,14.26-11.67,31-17.4,46.88-11.61,32.06-8.64,65.43,10.79,89,21.15,25.63,57.92,35.32,89.52,28.21s58.18-31.44,58.19-73.26c0-34.55-15.25-61.59-34.69-81.41A166.29,166.29,0,0,0,70.52,8.1C61.32,4.81,51.71,1.79,44.4.57,40.74,0,37.68-.25,35.24.38Zm.86,3.3a21.42,21.42,0,0,1,7.74.25C50.72,5.07,60.26,8,69.37,11.31A163.29,163.29,0,0,1,128.2,49.09c19,19.35,33.73,45.47,33.72,79,0,40.39-25.13,63.1-55.53,69.94s-66-2.6-86.15-27.06C1.69,148.52-1.27,116.51,10,85.33c5.71-15.77,12.4-32.55,17.42-46.92,2.51-7.19,4.61-13.77,6-19.37s2-10.16,1.38-13.64c-.12-.68,0-.89.11-1.08A2.18,2.18,0,0,1,36.1,3.68Z"/><path class="cls-9" d="M70.76,150.58a1.27,1.27,0,0,0-1.21.78,9.74,9.74,0,0,0-.4,7.23,12.58,12.58,0,0,0,4.39,5.62c4.07,3.12,10,5.16,16.32,6.26a53.73,53.73,0,0,0,18,.29,19.32,19.32,0,0,0,6.67-2.3,6.68,6.68,0,0,0,3.38-4.62,1.29,1.29,0,0,0-.24-1,1.28,1.28,0,0,0-2.28.59,4.07,4.07,0,0,1-2.2,2.81,17.22,17.22,0,0,1-5.78,2A51.68,51.68,0,0,1,90.3,168c-6-1-11.68-3.06-15.2-5.77a10.06,10.06,0,0,1-3.55-4.44,7.11,7.11,0,0,1,.34-5.38,1.26,1.26,0,0,0-.67-1.67A1.24,1.24,0,0,0,70.76,150.58Z"/><path class="cls-9" d="M70.85,210.09l.58,1.6c.09.25.63,2.55,1,4.92a40.24,40.24,0,0,1,.57,6.74L72.92,225l3.1-1,.38-.56a40.06,40.06,0,0,0-.6-7.41C74.9,210.71,73.75,209.19,70.85,210.09Z"/><path class="cls-9" d="M74.52,199.71l-1.36,1c-6.26,4.64-11.95,13-15,21.58A34.27,34.27,0,0,0,55.91,235a15.58,15.58,0,0,0,4.15,10.6c6,6,14.42,6.33,22,4a45.22,45.22,0,0,0,19.06-11.89,53.24,53.24,0,0,1,10.24-8.85,17.34,17.34,0,0,1,5.62-2.53c2.39-.19,4,.18,5.51,1.47,1.94-2.34-1.84-5-5.69-4.86-1.87.1-4.15,1.07-7.27,3.06a56.28,56.28,0,0,0-10.92,9.41,42.6,42.6,0,0,1-17.54,10.94c-6.91,2.11-13.69,1.83-18.63-3.15-2-2.05-3-4.89-3.17-8.33a31.09,31.09,0,0,1,2-11.42c2.85-8,8.39-15.94,13.84-20l1.37-1Z"/><path class="cls-9" d="M105,216.51c-4.87-.15-9.78,1.4-14.27,3.43A97.84,97.84,0,0,0,79,226.48c-1.57,1-2.91,1.83-3.88,2.38a11.76,11.76,0,0,1-1.14.57c-.24.1-.36,0,.08.08l-1.67-.31c-.69,5.14,6,2.81,8.49,1.22,3.13-2,7-5.48,11.23-7.39s8.69-3.25,12.76-3.12a13.7,13.7,0,0,1,10.91,5.6l1.43-.33,2.29-.45-1.06-1.33A17.46,17.46,0,0,0,105,216.51Z"/><path class="cls-9" d="M84.88,218.77a26.64,26.64,0,0,0-6.6,1.44,20.57,20.57,0,0,0-5,2.53A7.22,7.22,0,0,0,70.43,226a4.2,4.2,0,0,0-.15,2.68,4,4,0,0,0,1.48,2,7.12,7.12,0,0,0,4.41,1.23l1.93-1.07-.26-2.35-1.7,0a4.61,4.61,0,0,1-2.37-.57.65.65,0,0,1-.24-.27s0-.13.08-.44h0a5.69,5.69,0,0,1,1.65-1.67,17.45,17.45,0,0,1,4.16-2.09,23,23,0,0,1,12.31-.89l1.36-.86,1-2.11-1.66-.35A25.07,25.07,0,0,0,84.88,218.77Z"/><path class="cls-9" d="M104.48,207.32l1.24,1.17a45,45,0,0,1,6.12,7.89,30.89,30.89,0,0,1,3.88,8.15l.32,1.67,3.34-.64-.33-1.68c-.51-2.66-2.24-6-4.34-9.31C110.85,208.83,107,204.63,104.48,207.32Z"/><path class="cls-9" d="M105.19,199.32l-1.88,2.17,1.58.64c13.57,5.46,21.62,18.68,22.85,26.2.57,3.5.58,6.46-.35,8.67s-2.7,3.95-6.57,5.18c-3.64,1.15-7.54.28-11.33-1.22s-7.29-3.57-10.42-4.47l-.8.51-1.78,2.29,1.64.47c2.35.67,6,2.75,10.12,4.37s8.83,2.8,13.59,1.29c4.52-1.43,7.38-3.94,8.7-7.11s1.17-6.76.56-10.53C129.61,218.66,121,205,106.16,199Z"/><path class="cls-9" d="M72.68,248.5,69,247.79l.25,1.68a59.7,59.7,0,0,1,.16,6.57c0,3.13-.17,6.95-.34,10.76-.35,7.62-.9,15.41-1.21,17.38-.36,2.29-2.39,15.2-4.53,27.73-1.08,6.27-2.18,12.44-3.12,17.13-.46,2.35-.89,4.32-1.24,5.72-.18.7-.34,1.27-.46,1.63s-.46.65,0,.15c-.58.57-3.09,2.51-5.45,4.8s-4.81,5-5.47,8.18a6.51,6.51,0,0,0,.28,4.06,5.76,5.76,0,0,0,2.67,2.65c2.23,1.15,5.08,1.5,8.48,1.93a117.19,117.19,0,0,0,16.85.46,58.22,58.22,0,0,0,9.25-1,16.36,16.36,0,0,0,3.5-1.12,4.69,4.69,0,0,0,2.44-2.23,23.1,23.1,0,0,0,1.17-4.52c.42-2.1.9-4.8,1.41-7.9,1-6.19,2.19-14,3.39-21.77s2.42-15.49,3.52-21.5c.55-3,1.07-5.58,1.54-7.49.23-1,.45-1.74.64-2.31s.41-1,.35-.88l1-1.36c-1.61-1.34-4.43.12-5.32,3.75-.49,2-1,4.64-1.58,7.68-1.11,6.08-2.33,13.82-3.53,21.59s-2.38,15.58-3.39,21.74c-.51,3.08-1,5.75-1.39,7.78a33.06,33.06,0,0,1-.94,3.79,2.39,2.39,0,0,1-.81.57,13.09,13.09,0,0,1-2.73.85,54.3,54.3,0,0,1-8.68.93,118.84,118.84,0,0,1-16.27-.43c-3.37-.43-6-.9-7.36-1.59a2.14,2.14,0,0,1-1.13-1,3.13,3.13,0,0,1-.05-2c.37-1.78,2.32-4.32,4.5-6.43S59.85,340,60.94,339a2.45,2.45,0,0,0,.81-1.5c.17-.51.34-1.13.53-1.88.38-1.5.81-3.51,1.28-5.88,1-4.75,2.06-10.94,3.13-17.22,2.15-12.57,4.18-25.48,4.54-27.78.41-2.62.9-10.09,1.25-17.76.17-3.84.3-7.68.34-10.87a53.46,53.46,0,0,0-.19-7.11Z"/><path class="cls-9" d="M104.74,285.32a18.76,18.76,0,0,0-2,.53,5.49,5.49,0,0,0-1.48.66l-.88,1.23,1.34,2.54,1.42-.94c-.12.08.24-.12.67-.26s1-.3,1.65-.44a13.25,13.25,0,0,1,3.9-.29l1.69.2C111.43,286.77,109.08,284.41,104.74,285.32Z"/><path class="cls-9" d="M125.55,240.67,122.43,242l.67,1.55c3.42,7.88,6.43,32.65,6.35,38.54a20.59,20.59,0,0,0,.24,2.58c.15,1.23.35,2.85.6,4.77.49,3.84,1.13,8.89,1.73,14.41,1.18,11,2.16,24,1.41,32.58a3.12,3.12,0,0,0,.87,2.36,11.48,11.48,0,0,0,1.7,1.62c1.29,1.07,2.92,2.22,4.48,3.46a23.5,23.5,0,0,1,4,3.86,4.69,4.69,0,0,1,1.2,3.5s-.2.44-1.16,1a18.21,18.21,0,0,1-4.33,1.47,71.47,71.47,0,0,1-13.66,1.43,71.86,71.86,0,0,1-13.51-.89,16.88,16.88,0,0,1-4.13-1.22,3,3,0,0,1-.81-.54c-.11-.11,0-.05,0,0-.29-7.82-.77-20.62-1.58-33s-1.88-24.16-3.53-30.48l-.43-1.64-2.84,1.62,0,.89c1.47,5.64,2.63,17.54,3.43,29.83s1.28,25,1.57,32.86a3.43,3.43,0,0,0,.94,2.16,6.06,6.06,0,0,0,1.79,1.27,19.14,19.14,0,0,0,5,1.51,74.4,74.4,0,0,0,14.21.95A74.72,74.72,0,0,0,141,357a21,21,0,0,0,5.18-1.79,5,5,0,0,0,2.92-3.46,8.15,8.15,0,0,0-1.84-6,25.51,25.51,0,0,0-4.62-4.49c-1.66-1.31-3.3-2.48-4.43-3.41a9.63,9.63,0,0,1-1.22-1.15c-.21-.26-.09-.31-.12.08.8-9.13-.23-22.12-1.42-33.24-.6-5.55-1.24-10.63-1.73-14.47-.25-1.93-.46-3.54-.6-4.74s-.21-2.14-.21-2.13c.09-7-2.55-30.51-6.64-39.94Z"/><ellipse class="cls-10" cx="62.65" cy="127.37" rx="5.04" ry="9.68"/><path class="cls-10" d="M130.93,127.5c0,5.34-2.26,9.68-5,9.68-1.34,0-2.62-1-3.56-2.84a16.57,16.57,0,0,1,0-13.69c.94-1.81,2.22-2.83,3.56-2.83C128.67,117.82,130.93,122.15,130.93,127.5Z"/><path class="cls-10" d="M52.44,101.38c3,1.93,18,13.44,19.26,14.22.25.15,1.56-1.61,1.22-2-2.25-2.34-17-13.9-18.49-14.51C54,99,52.44,101.38,52.44,101.38Z"/><path class="cls-10" d="M118.11,112.18c2.65-3.64,14.58-12.52,15.64-13.12.39-.22,2,2.66,1.53,2.92-1.08.57-12.91,9-16.11,12A17.73,17.73,0,0,1,118.11,112.18Z"/><path class="cls-9" d="M101.16,240.76c-1.5,0-3,.1-4.2.23a9.21,9.21,0,0,0-1.56.26,2.37,2.37,0,0,0-.71.28,1.46,1.46,0,0,0-.76,1.16s-.06.35-.15.84-.22,1.13-.37,1.88c-.31,1.52-.71,3.46-1.15,5.43s-.88,4-1.28,5.56-.81,3-.89,3.13c.12-.26.22-.22,0-.15a4.77,4.77,0,0,1-1.1.17,20.5,20.5,0,0,1-3.68-.21,24,24,0,0,1-3.53-.75c-.28-.1-.42-.17-.59-.24.28-1.75,1.26-7.61,1.9-10l.34-1.23L81,246.48l-.34,1.23c-.8,2.93-1.89,9.66-2.09,10.93a1.65,1.65,0,0,0,.38,1.26,2.31,2.31,0,0,0,.63.51A7.28,7.28,0,0,0,81,261a24.66,24.66,0,0,0,4,.85,21.83,21.83,0,0,0,4.19.23,6.88,6.88,0,0,0,1.75-.3,2.33,2.33,0,0,0,1.5-1.22,23,23,0,0,0,1-3.56c.41-1.64.87-3.65,1.31-5.63s.84-3.94,1.15-5.47c.16-.76.28-1.42.38-1.92,0-.16,0-.22,0-.34a7.66,7.66,0,0,1,.89-.14c1-.11,2.52-.18,4-.2,2.51,0,4.37,0,5,0a20.75,20.75,0,0,1,1,2.65c.52,1.62,1.07,3.6,1.6,5.55s1,3.86,1.43,5.37.64,2.52.78,3a1.75,1.75,0,0,0,1.41,1.19,5.22,5.22,0,0,0,1.38.12,17.71,17.71,0,0,0,3.29-.43,18.09,18.09,0,0,0,3.21-1,5.41,5.41,0,0,0,1.25-.69,1.89,1.89,0,0,0,.86-1.55,6.2,6.2,0,0,0-.14-1.15c-.08-.46-.2-1-.33-1.64-.28-1.25-.64-2.77-1-4.27s-.77-3-1.09-4.12c-.16-.57-.3-1.06-.42-1.45a3.19,3.19,0,0,0-.36-.94l-.63-1.1-2.21,1.26.63,1.1c-.16-.27,0,.1.14.44l.4,1.38c.31,1.11.69,2.57,1.06,4.05s.74,3,1,4.19c.13.61.23,1.14.31,1.54l0,.34a3.9,3.9,0,0,1-.52.27,15.73,15.73,0,0,1-2.73.82,16.87,16.87,0,0,1-2.81.38,4.34,4.34,0,0,1-.44,0l-.61-2.33c-.39-1.51-.9-3.44-1.43-5.4s-1.11-4-1.63-5.65a19.5,19.5,0,0,0-1.47-3.82l-.37-.59-.69,0S104.16,240.7,101.16,240.76Z"/><path class="cls-9" d="M96.52,214.13a1.6,1.6,0,0,0-1.06,1,40,40,0,0,0-.87,4.18l-.16,1.27,2.53.31.16-1.26c.06-.48.17-.83.29-1.4.09.15.31.48.31.48l.37,1.22,2.45-.73-.37-1.22a7.1,7.1,0,0,0-1.42-2.37,7.78,7.78,0,0,0-.83-.93,1.65,1.65,0,0,0-.55-.41A1.2,1.2,0,0,0,96.52,214.13Z"/><path class="cls-9" d="M94.38,205.09a15.91,15.91,0,0,0-3.12.5,5.58,5.58,0,0,0-1.26.48,2.06,2.06,0,0,0-1.07,1.15,15.33,15.33,0,0,0-.6,2.17c-.33,1.41-1,4.24-2.53,10.61l-.3,1.24,2.48.61.3-1.24c1.55-6.38,2.21-9.23,2.53-10.63a10.66,10.66,0,0,1,.46-1.69,4.73,4.73,0,0,1,.67-.25,15.86,15.86,0,0,1,2.63-.41,16.42,16.42,0,0,1,2.82,0c.79.09,1.38.4,1.26.29a31.64,31.64,0,0,1,3.55,4.68c1.38,2.1,2.78,4.41,3.71,6l.64,1.09,2.21-1.29-.65-1.1c-1-1.61-2.36-3.94-3.79-6.1a29,29,0,0,0-4-5.16,4.27,4.27,0,0,0-2.69-.93A17.13,17.13,0,0,0,94.38,205.09Z"/></g></g></svg>