<svg xmlns="http://www.w3.org/2000/svg" viewBox="0 0 163.56 202.38"><defs><style>.cls-1{fill:#fc7a7a;}.cls-2{fill:#cf3030;}.cls-3{fill:#b71515;}.cls-4{fill:#fdabab;}.cls-5{fill:#faa;}.cls-6{fill:#782121;}</style></defs><g id="Layer_2" data-name="Layer 2"><g id="line"><path class="cls-1" d="M36.64,2c-1.54-.29-4.23,1.34-4.17,3-.28,7.71-.62,15-2.29,22.55-3.38,18.18-11,36.89-17.8,54-5.87,14.8-9.77,29.25-10.3,45.22C1.14,141,4.9,157.58,13.6,169.17c12,16.36,32.31,26.51,52,29.87a120.24,120.24,0,0,0,21.59,1.64c10.41-.45,21.22-2.16,30.94-6.16,16.3-6.26,30.25-20.28,37.08-36.33,4.62-10.37,6.5-22.81,6.25-34.13.3-21.71-8-42.62-20.94-59.88a155.69,155.69,0,0,0-23.76-25.7A188.35,188.35,0,0,0,59,6.47C51.86,4.27,44.24,1.76,36.64,2Z"/><path class="cls-2" d="M13.87,153c-6.29-18-2.51-45.51,5.57-65.72s21.26-41.07,22-63.83c.33-10.57-2.92-11.9,12.8-7.41S103,34.2,125,60.25s32.16,50.54,28.56,77.49-23.8,53.46-61.09,57C56.57,198.25,23.3,179.07,13.87,153Z"/><path class="cls-3" d="M40.1,177c11.43,10.23,42.58,17.54,63.86,11.63,16.85-4.68,24.86-16.64,19.68-13.87-7.42,4-13.85,8.41-26.06,9.59-13.57,1.32-38.1-2.91-50.69-11.05C39,168.19,34.08,171.59,40.1,177Z"/><path class="cls-4" d="M27.77,88.86c-2.08-5,1.88-10.43,4.9-16.07a103.86,103.86,0,0,0,7.76-21.38c.92-4.74,4.48-7,7.35-1.7s.94,17.34-1.68,26S36.06,99.1,27.77,88.86Z"/><path class="cls-4" d="M42.4,33.67a5.51,5.51,0,0,1,7.94-4.13c3.36,1.87,3.34,5.09,2.54,7.63S49.07,41,46.21,40.34,41.92,37.19,42.4,33.67Z"/><path class="cls-5" d="M66.94,94.4c-7.35,1.34-12,10.78-14.09,16.89-2.86,11.87-2.5,26.93-1.77,39.08-.29,4.3,9.07,3.54,9.46.42.74-5.52-.33-11.91,1.43-17.14a13.17,13.17,0,0,1,13.71-.19c3.34,5.36.46,12.29,3.78,17.69,3.58,1.91,7.78-3.81,7.71-6.43,0-14.52-3.48-31.82-10.87-44.39C74.52,97.66,70.36,94.17,66.94,94.4Zm8.52,23c1.17,4.7-3.54,4.82-6.61,5.06s-8.84.91-7.62-3.82c.65-5.07,2.86-10.43,5.57-11.55C71.3,106.18,74.39,113.05,75.46,117.39Z"/><path class="cls-5" d="M90.69,96.29c2,15.67,2.86,36.76,5.4,52.31,3.24,2.41,9.85.46,13.65,1,5.86.34,15.51-2.77,16.36-9.68,1-7.22-1.93-16.47-7.68-21.23-4.37-2.43-1.74-4.5.26-7.79,2.9-7.46-3.3-18.5-11.72-18.93C100.49,91.24,89.86,93.2,90.69,96.29Zm15.42,5.26c5.55.16,6.88,5.63,3.09,9.39-4.68,5-11.42-.52-8.5-6.4C101.72,102.36,103.78,101.72,106.11,101.55Zm4.33,26.17c6.57.47,8.82,7.19,2.8,10.47-5,4.18-10.82-.44-9.54-6.34C104.17,128.21,106.73,127.4,110.44,127.72Z"/><path class="cls-6" d="M34.46.42a5.7,5.7,0,0,0-4,3.45,10.47,10.47,0,0,0-.32,4.52c.71,9.08-.24,23.73-9.57,47.54C11.67,78.66-.29,99.91,0,133.88c.18,21.46,10.63,39.67,27.62,51.84s40.48,18.38,67,16.25c25-2,44.2-13.65,55.88-30.91s15.85-40.07,11.3-64.41c-5.7-30.45-25.18-54.08-46.43-71.07S71.06,8.19,57.72,4.15C45,.3,38.5-.67,34.46.42Zm.89,3.28c2.46-.66,8.86-.09,21.38,3.71,12.83,3.88,35.64,14.17,56.48,30.83s39.71,39.65,45.2,69c4.42,23.6.34,45.47-10.77,61.89s-29.22,27.47-53.33,29.41c-25.78,2.08-48.47-4-64.7-15.62s-26-28.72-26.21-49.1c-.28-33.16,11.33-53.66,20.35-76.68C33.22,33,34.29,17.72,33.53,8.12A8.71,8.71,0,0,1,33.68,5C33.91,4.37,34.12,4,35.35,3.7Z"/><path class="cls-6" d="M66.25,92.59c-3.39.32-6.37,2.31-8.77,5.29a36.09,36.09,0,0,0-5.84,11.83c-3,9.69-4.41,22.82-3.6,37.91l.11,2.07c.23,4.49,4.23,6.89,7.81,7.13a7,7,0,0,0,5.42-2.06,8.55,8.55,0,0,0,2.23-6.28c-.11-4.89.06-9.78.22-13.16a3.56,3.56,0,0,1,.85-.48,15,15,0,0,1,4.09-.83,17.19,17.19,0,0,1,4.3.17,4.18,4.18,0,0,1,.88.26c.15.72.41,3.05.58,5.71a73.55,73.55,0,0,0,.81,8.33,6.89,6.89,0,0,0,8.2,5.68,7.41,7.41,0,0,0,4.62-3.87,16.53,16.53,0,0,0,1.52-8.16,101.21,101.21,0,0,0-6.36-32.63,40.4,40.4,0,0,0-6.95-12.18C73.6,94.24,70.12,92.22,66.25,92.59ZM66.67,97c2.14-.2,4.22.83,6.44,3.3a36.9,36.9,0,0,1,6.12,10.84,98.1,98.1,0,0,1,6.06,31.14,12.6,12.6,0,0,1-1,6,2.78,2.78,0,0,1-1.78,1.64,2.46,2.46,0,0,1-2.85-2.22c-.34-1.84-.56-4.92-.74-7.78a36.27,36.27,0,0,0-.77-7.12,3.56,3.56,0,0,0-1.93-2.15,8,8,0,0,0-2.31-.75,20.71,20.71,0,0,0-5.45-.23A18.21,18.21,0,0,0,63,130.77a7.05,7.05,0,0,0-2.25,1.38,4.12,4.12,0,0,0-1.33,2.73c-.18,3.47-.34,8.58-.22,13.71a4,4,0,0,1-1,3.09,2.56,2.56,0,0,1-2,.75c-1.59-.09-3.57-1.29-3.77-5-.79-14.68.6-27.41,3.4-36.38a32.53,32.53,0,0,1,5.07-10.38C62.8,98.27,64.72,97.15,66.67,97Z"/><path class="cls-6" d="M68.42,104.41a6,6,0,0,0-4.27,2.26,15,15,0,0,0-2.42,4.27,34.08,34.08,0,0,0-2.14,10.16,3.32,3.32,0,0,0,1.61,2.83,6.94,6.94,0,0,0,2.29.83,22.65,22.65,0,0,0,5.38.37,23.83,23.83,0,0,0,5.36-.74,6.93,6.93,0,0,0,2.21-1,3.27,3.27,0,0,0,1.44-2.91,36.63,36.63,0,0,0-2.53-9.87,14.8,14.8,0,0,0-2.55-4.17A5.79,5.79,0,0,0,68.42,104.41Zm.14,4.38c.18,0,.46.06,1,.66a11,11,0,0,1,1.74,2.92,31.91,31.91,0,0,1,2,7.7c-.12,0-.11.05-.25.09a22.72,22.72,0,0,1-8.64.31c-.13,0-.12,0-.23-.08a30.25,30.25,0,0,1,1.65-7.83,11.5,11.5,0,0,1,1.67-3C68,108.91,68.36,108.8,68.56,108.79Z"/><path class="cls-6" d="M99.4,89.81a18.79,18.79,0,0,0-7.51,2,7.53,7.53,0,0,0-2.66,2.36,5.42,5.42,0,0,0-.83,3.66c.85,6.16,3.55,33.6,5.39,51.93A2.49,2.49,0,0,0,96.2,152a15.08,15.08,0,0,0,2,.17c1.49.08,3.45.1,5.54.07,4.2,0,8.85-.24,11.34-.54a16.43,16.43,0,0,0,9.08-3.7c3-2.64,5-7.17,4.42-13.81-.9-10.18-6.09-15-9.87-18.19a15.56,15.56,0,0,0,2.9-10.45,17.75,17.75,0,0,0-6.18-12.07C111.38,90.16,105,89.33,99.4,89.81Zm.37,4.38c4.75-.41,10.53.76,12.85,2.66a13.48,13.48,0,0,1,4.59,9.07,10.89,10.89,0,0,1-2.76,8.84l-1.76,1.69,1.87,1.56c3.92,3.29,8.75,6.68,9.61,16.52.5,5.66-1,8.43-3,10.14a12.45,12.45,0,0,1-6.7,2.62c-2,.25-6.78.48-10.86.53-2,0-3.94,0-5.26-.07l-.4,0c-1.83-18.26-4.37-44-5.26-50.47a.71.71,0,0,1,.16-.64A3.27,3.27,0,0,1,94,95.65,15.46,15.46,0,0,1,99.77,94.19Z"/><path class="cls-6" d="M104.45,100a6.73,6.73,0,0,0-4.93,2.85,7,7,0,0,0-1.19,4.94,8.09,8.09,0,0,0,2.1,4.39,7,7,0,0,0,10.45-.28,7.53,7.53,0,0,0,1.47-5.08A7.28,7.28,0,0,0,104.45,100Zm.38,4.38A3,3,0,0,1,108,107a3.16,3.16,0,0,1-.53,2.14,2.22,2.22,0,0,1-1.87.81,2.18,2.18,0,0,1-1.91-.81,4.13,4.13,0,0,1-1-2,2.83,2.83,0,0,1,.45-1.84A2.07,2.07,0,0,1,104.83,104.35Z"/><path class="cls-6" d="M108.31,125c-4.4.67-6.84,4.8-6.6,8.73a9.14,9.14,0,0,0,1.93,5.31,8.22,8.22,0,0,0,6,2.8c4.82.22,8.37-4.2,7.9-9S112.89,124.33,108.31,125Zm.67,4.35c1.61-.24,4,1.51,4.23,4s-1.12,4.23-3.33,4.12a3.42,3.42,0,0,1-2.85-1.2,4.87,4.87,0,0,1-.93-2.78C106,131.3,106.84,129.69,109,129.37Z"/></g></g></svg>