<svg xmlns="http://www.w3.org/2000/svg" viewBox="0 0 161.93 344.45"><defs><style>.cls-1{fill:#c8b7b7;}.cls-2{fill:#fc7a7a;}.cls-3{fill:#cf3030;}.cls-4{fill:#9e1d1d;}.cls-5{fill:#fc6464;}.cls-6{fill:#eb4d4d;}.cls-7{fill:#b71515;}.cls-8{fill:#f84343;}.cls-9{fill:#fdabab;}.cls-10{fill:#faa;}.cls-11{fill:#661c1c;}.cls-12{fill:#782121;}.cls-13{fill:#ffd5d5;}</style></defs><g id="Layer_2" data-name="Layer 2"><g id="ground_shadow"><path class="cls-1" d="M75.88,331.62c15.15-2.73,48.19,2.72,49.4,6.06s-12.73,6.06-23,6.67-17.58-1.82-27.58-.61-46.07-.61-40.62-5.46S70.12,331.62,75.88,331.62Z"/></g><g id="color"><path class="cls-2" d="M28.08,2c-3.64.3-10.3-.11-12.72,3.21-.8,3.57,1.11,9,.95,12.56.93,14-1.63,25-5.5,38.38C6.53,72.79,1.18,89.64,1.7,107c-.26,9.82.8,20.87,4.19,30.19,6.35,19.59,23.56,38.1,42.43,45.71C72.07,193,101.1,193.23,124,180.79c17-9.2,30-25.9,33.91-44.74,2.49-9.85,2.28-23.84,2-33.89C158,83.36,147.94,66.47,135.28,52.5A156.89,156.89,0,0,0,66.39,8.31C54.2,4.41,40.9,1.91,28.08,2Z"/><path class="cls-2" d="M40.74,191.53c-9.34,11.84-20.09,24.79-31,35.18-1.61,1.31-3.62,5.76-1.26,7.36,4.22,1.85,10.7.75,14.92-.36,14.15-5.16,24.12-14.33,34.5-25,1.4-.89,2.74-3.53,4.32-3.91-1.09,2.21-2.51,3-4.45,5.26-2.77,3.23-8,7.7-8.72,12.24-5.23,14.89-10.69,29.08-11.31,45.06-.65,13.81-.86,28.09,2.26,41.67,1.86,8.54,3.9,18.89,7.42,26.93,2.31,3.32,9.76,1.76,13.22,2.38,7.23.23,15,.58,22-1.31,1.88-.91-1.84-5.17-2.44-6.17-5.13-5.47-5.69-14.18-7.2-21.11a152.38,152.38,0,0,1-1.7-39c1.26-2.29,2.86-2.38,5.11-3.23,3.81-.89,7.75-2.15,10.79-.66-2.85-.34-7.43-.3-11,1.92-1.61,5.15-1.88,11.83-2.4,17.18-.4,11.69-1.62,23.5,2.27,34.79a24.89,24.89,0,0,0,5.7,11.46c1.34,1.25,1.69,4.28,4,4.22,8.51.81,19.34,1.67,27.8.26,1.33-1.56-.21-4.64-2-7.61-4.25-4.42-4.2-13.12-5.4-18.72-2.57-18-4.61-31.9-4.36-50.12,5.45-8,7.64-18.16,9-27.62a47.09,47.09,0,0,1,1.91-6.47c7.72,5.1,18.11,9.61,27.52,9.4,2.51.13,5.49-4,5-6.46-.47-4.37-5.76-8-8.56-10.85-6.38-4.65-11.12-11.5-15.39-18.09-3.55-4.77-6.54-10-11-13.88-18.46,5.18-41.95,2.81-60.1-3.4C46.88,184.5,43.34,188.88,40.74,191.53Z"/></g><g id="shadow"><path class="cls-3" d="M18.28,223.8c10.1-9.58,22.55-24.14,25.73-28.58S52,186,55.13,186.32c3,.3,12.07,3.82,19.37,3.18s22.24-.32,26.05-1.27,5.72-3.18,10.16,3.81,13,19.31,16.2,22.55c5.4,5.4,14,11.75,13.34,14.61s-8,1.79-15.88-1.9c-5.4-2.54-12.46-7.16-12.39-8.58.32-6.67-2.86-18.42-4.76-22.23.63,10.48,1.9,21.28,0,31.13-3.06,15.79-5.72,26-8.58,28.58s0,31.76.64,39.71,1.87,26.63,4.09,29.81c1.42,2,3.38,4.51,3.53,6.39.21,2.56-24.17.45-25.09-.63-1.91-2.22-2.54-1-2.86-4.13S76.09,309.56,77,296.54s2.54-27.32,3.18-28.27,6.61-1.17,7.94-1.27c2.71-.21-2-4.63-7.94-4.13-7.08.6-10.77,2.09-12.07,5.08-3.18,7.31-1.91,26.37-.32,39.39s2.5,15.43,3.32,17.85c1.46,4.29,4,5.43,3.72,7.47-.25,1.73-20.25,1.6-22-1.18-5.08-8.26-11.11-35.26-9.84-55.59s7-40.33,9.84-47.32,4.45-16.2,6-18.42,6.67-7,3.81-6.36-11.22,8.27-21.28,15.57C28.76,228.57,3.28,238,18.28,223.8Z"/><path class="cls-3" d="M16.69,141.22c-8.85-21.81-4.47-48.57,3.5-71.78,3.59-10.48,10-29.69,8.68-44.58-.84-9-4.55-13.23,18-10s66.7,16.2,90.52,49.86,19.38,68.61,6,88.94S107.85,183.15,85,182.51C67.84,182,29.76,173.41,16.69,141.22Z"/><path class="cls-4" d="M84.74,143.75c-3.44-.06-3.67,4.33-3.32,6.83-.11,1.26.72,3,2.16,1.89,8.28-4.24,19.66-2.67,25.64,4.83.8.75,2.35,3.47,3.13,1.35.92-2.45,3.37-5.55,1.53-8.09-3.79-2.7-8.82-2.76-13.18-4.05C95.41,145.5,90.13,144.06,84.74,143.75Z"/><path class="cls-5" d="M91.94,152.33a12.94,12.94,0,0,0-9,3c2.56,6.43,9.19,11.31,16.27,10.44,3.54-.35,7.79-1,10-4.13-.38-3.92-4.54-6.16-7.67-7.85C98.58,152,95.21,152.32,91.94,152.33Z"/><path class="cls-6" d="M81.91,154.87c3.14-3.37,9.65-4,13.92-3.59s6.07,2,8.54,3.36,4.49,2.7,5.39,4.5a8.29,8.29,0,0,1,.9,3.37l-2.09.46s-4.85-7.43-13.47-8c-7.18-.51-10.72,2.62-11.17,3.75S81.46,156,81.91,154.87Z"/><path class="cls-7" d="M60.21,252.61c-5.48-7.47-.82-9.8,8.86-5.83,9.32,3.82,17.8-1.37,22.18-7.93,4.68-7,6.81-26.67,6.81-33.56s7.08,2.34,6,20.9a51.27,51.27,0,0,1-8.4,26.45C90.78,260,68.15,263.43,60.21,252.61Z"/><path class="cls-7" d="M51.07,320.52c.9,4.09,2.25,7.87,4.13,9.19,2.47,1.73,11.85,3.45,10.5.75C63.45,326,59,327,57.26,323.33,54.45,317.33,50.2,316.53,51.07,320.52Z"/><path class="cls-7" d="M81.07,317.71c-2,2.27-.37,8.25,1.88,10.5s12,4.5,11.25,1.5-5.25-1.88-7.5-5.25S83.67,314.77,81.07,317.71Z"/><path class="cls-7" d="M46,166.37c13.68,9.48,33.9,14,53.36,11.07,23.09-3.47,31.24-16.92,26.8-14.63a77.66,77.66,0,0,1-29.61,9c-11.66,1.33-30.79-3.09-43.76-10.1C44.47,157.27,39.32,161.77,46,166.37Z"/><path class="cls-7" d="M54.82,185.89c4.13,8.25,21.94,9.6,32.25,9.94,12,.4,19.69-5.62,19.5-7.69s-6.19,1.69-18.37,1.5S58.2,187.58,54.82,185.89Z"/></g><g id="hi"><path class="cls-8" d="M59.54,134.28c-.13,2.32-3.21,4-6.89,3.83A9,9,0,0,1,48,136.63a3.66,3.66,0,0,1-1.79-3.08c.13-2.32,3.21-4,6.89-3.84a9,9,0,0,1,4.64,1.49A3.65,3.65,0,0,1,59.54,134.28Z"/><path class="cls-8" d="M146.19,133.15c.25,2.31-2.52,4.5-6.19,4.89a9,9,0,0,1-4.82-.72,3.65,3.65,0,0,1-2.26-2.75c-.24-2.31,2.53-4.5,6.19-4.89S145.94,130.84,146.19,133.15Z"/><path class="cls-9" d="M44.17,202.52c-2.7-1.74,4.45-8.57,6.35-10.16s4.13-.48,1.91,3.33S47.19,202.84,44.17,202.52Z"/><path class="cls-9" d="M35.59,210.78c-1.11-1.9,2.39-3.81,3-2.86S37.34,211.1,35.59,210.78Z"/><path class="cls-9" d="M48.62,262.24c-4-.83-.16-10.64,1-13s3.49-4.13,4.6,0S53.32,263.21,48.62,262.24Z"/><path class="cls-9" d="M47.5,277c.48-3.18,2.23-3.5,2.86-1.43s0,4-1.43,4.44S47.5,278.91,47.5,277Z"/><path class="cls-9" d="M96.74,317c-.32-4.29.63-7,2.54-6s2.7,4.61,2.7,6.67-.16,4.61-2.39,4.45S97.05,319.25,96.74,317Z"/><path class="cls-9" d="M110.08,198.71c-1.8-4.38-.48-4.92.31-4.6a8.58,8.58,0,0,1,3.34,4C114.52,200,112.29,204.11,110.08,198.71Z"/><path class="cls-9" d="M124.21,216.5c.17-1.53,2.22.32,2.22,1.75S124,218.62,124.21,216.5Z"/><path class="cls-9" d="M27.88,81.83c-4.8-3.24-2.51-9-.15-16.69s3.72-14.16,4.8-19,5.34-5.08,8.11-.17,2.46,12.84,1,20.22S35.23,86.79,27.88,81.83Z"/><path class="cls-9" d="M34.67,30.74c-.29-4.25,3.82-8.08,8.09-5.39s2.76,6.47,2.24,8.54C44.06,37.63,35.24,39.23,34.67,30.74Z"/><path class="cls-10" d="M88.38,196.68c-5.7.22-11.62,4-15.4,8-7.31,8.16-10,23.91-2.86,33,4.11,5.42,13,7.21,19.38,5.4,8.11-2.12,13.29-10.93,15.53-18.51,2.31-7.91,1.84-19-5.26-24.32C96.9,197.59,92.18,196.46,88.38,196.68ZM99.85,217.4c-.67,6.86-4.31,14.23-11.08,16.45-5.18,1.53-11.14-.19-12.55-5.77-2.66-9.33,2.43-19.84,11.77-22.46C92.52,203.77,100.2,209.33,99.85,217.4Z"/></g><g id="line"><path class="cls-11" d="M64.44,74.49c-5.92.94-10.55,7.42-10.42,16.72a1.28,1.28,0,0,0,1.3,1.26,1.26,1.26,0,0,0,1.25-1.29c-.12-8.45,4-13.49,8.27-14.17a7.8,7.8,0,0,1,6.67,2.4c2.22,2.08,4.3,5.62,5.67,10.91a1.28,1.28,0,0,0,2.47-.64c-1.46-5.63-3.71-9.62-6.4-12.13A10.46,10.46,0,0,0,64.44,74.49Z"/><path class="cls-11" d="M124.61,73.76c-2.7.16-5.23,1.83-7.13,4.6a24.07,24.07,0,0,0-3.68,11.58A1.28,1.28,0,0,0,115,91.32a1.32,1.32,0,0,0,.94-.29,1.28,1.28,0,0,0,.45-.87,21.63,21.63,0,0,1,3.23-10.35c1.58-2.3,3.44-3.4,5.18-3.5s3.55.73,5.21,3,3.05,5.84,3.64,11A1.27,1.27,0,0,0,135,91.34a1.27,1.27,0,0,0,1.12-1.41c-.62-5.44-2.1-9.47-4.12-12.19S127.31,73.6,124.61,73.76Z"/><path class="cls-12" d="M28.47,0a31,31,0,0,0-10,1.28,7.79,7.79,0,0,0-4.85,3.9,7.77,7.77,0,0,0-.2,5.29c1.5,5.73,1.84,13.57.14,27.5-.8,6.56-5.37,20-9,36.14s-6.3,35.37-3.23,54.29c3.64,22.4,17.1,39.35,34.69,50a94.93,94.93,0,0,0,59.72,12.5c27.15-3.32,46-17.32,56.45-36.32s12.39-42.93,6.31-66.26C151.08,59.78,129.88,39,107.1,24.9S60,3.3,45.54,1.38A132.35,132.35,0,0,0,28.47,0Zm0,3.45a127.38,127.38,0,0,1,16.63,1.3C58.86,6.58,83,14,105.31,27.79s42.78,34,49.91,61.35c5.89,22.6,3.9,45.65-6,63.76s-27.67,31.38-53.87,34.59a91.81,91.81,0,0,1-57.56-12C20.9,165.26,8.16,149.22,4.7,127.86c-3-18.25-.39-37,3.18-53s8.14-29,9.05-36.46c1.73-14.14,1.43-22.45-.22-28.78a4.58,4.58,0,0,1,0-3c.33-.73,1-1.46,2.87-2.09A29,29,0,0,1,28.46,3.45Z"/><path class="cls-12" d="M85,141.47a5.47,5.47,0,0,0-5.25,3.16,11.18,11.18,0,0,0-.43,6.73,22.35,22.35,0,0,0,8.73,13.81,18.29,18.29,0,0,0,13.55,2.71,18.52,18.52,0,0,0,10.85-5.82c2.75-3.25,4-6.31,4.27-8.85s-.63-4.74-2.47-5.57a38.71,38.71,0,0,0-5-1.44c-2.42-.61-5.47-1.32-8.61-2C94.39,142.81,87.92,141.55,85,141.47ZM84.94,144c2.2,0,9,1.3,15.18,2.66,3.12.68,6.16,1.4,8.54,2s4.29,1.17,4.56,1.29c.49.22,1.13,1.15,1,3s-1.17,4.49-3.67,7.43a16.25,16.25,0,0,1-9.34,5,15.71,15.71,0,0,1-11.67-2.31c-4-2.71-6.85-7.88-7.67-12.17a9.18,9.18,0,0,1,.25-5.2A2.59,2.59,0,0,1,84.94,144Z"/><path class="cls-12" d="M91.15,149.78a20.17,20.17,0,0,0-9.86,3.83l-1,.75,1.5,2.06,1-.75a18.13,18.13,0,0,1,17-2.35c5.13,1.78,8.91,5.58,9.45,8.42l.24,1.26,2.51-.48-.24-1.26c-.84-4.37-5.35-8.34-11.13-10.35A21.81,21.81,0,0,0,91.15,149.78Z"/><path class="cls-11" d="M68.3,103.08c4.33-.43,10.24,1.77,11,10.51.53,5.83-3.47,10.45-9.22,11.35-4.75.75-10.79-3-11.36-9.42C58,107.19,63.41,103.57,68.3,103.08Z"/><path class="cls-11" d="M126.34,102.83c5.89-.34,9.94,4.39,10.22,10.08a10.55,10.55,0,0,1-9.27,11.22,9.58,9.58,0,0,1-10.7-9.59C116.32,106.38,122,103.07,126.34,102.83Z"/><path class="cls-12" d="M50.7,183.27l-1.24-1.56a20.55,20.55,0,0,0-5.79,4.53c-2,2-4.12,4.52-6.19,7.07-4.13,5.09-8.11,10.52-10.33,13-4.65,5.19-15.93,16.7-19,19.37a8.47,8.47,0,0,0-2.49,3.71,5.75,5.75,0,0,0,.31,4.83c.92,1.57,2.74,2.61,5.22,3a28.6,28.6,0,0,0,10.12-.85c9-2,19-8.59,27.14-15.15,4.08-3.28,7.69-6.56,10.48-9.31,4.35-4.26,6.43-7.88,3.61-9.47l-.92,1.43a48.6,48.6,0,0,1-5.08,5.62,136.62,136.62,0,0,1-10.22,9.08c-8,6.39-17.74,12.69-25.75,14.49a25.92,25.92,0,0,1-8.88.8c-1.84-.28-2.5-.86-2.79-1.34a2.42,2.42,0,0,1,0-2,5.67,5.67,0,0,1,1.5-2.24c3.62-3.12,14.54-14.31,19.34-19.67,2.51-2.79,6.39-8.11,10.44-13.12,2-2.5,4.09-4.91,6-6.82a19.15,19.15,0,0,1,4.75-3.81l1.55-.69Z"/><path class="cls-12" d="M110.5,185.53l-2.74,1.4,1.45.89a22.37,22.37,0,0,1,4.56,4.81c1.82,2.38,3.82,5.33,5.87,8.36,4.1,6.06,8.22,12.38,12.1,15.47,4.45,3.54,8.16,6.37,10.17,8.83a7.69,7.69,0,0,1,1.77,3.38,5.27,5.27,0,0,1-.63,3.46c-.32.63-1.37,1.26-3.46,1.44a27.11,27.11,0,0,1-8.08-.86c-6.22-1.48-13.43-4.68-18.12-8.42l-1.34-1.06-2.12,2.67,1.34,1c5.26,4.2,12.75,7.47,19.45,9.06a29.65,29.65,0,0,0,9.15,1c2.66-.23,5.11-1.1,6.22-3.3a9,9,0,0,0,.94-5.6,11.05,11.05,0,0,0-2.48-4.92c-2.48-3-6.29-5.83-10.69-9.35-3-2.35-7.29-8.64-11.4-14.71-2-3-4.08-6-6-8.52a22.74,22.74,0,0,0-5.48-5.64Z"/><path class="cls-12" d="M50.2,216.63l-1.1.35c-2.42,8.65-9.62,24.42-11.75,38.41s-3,34.88-.16,49.25c1.15,5.77,2.51,12.67,4.05,18.6s3.09,10.94,4.92,13.78a3,3,0,0,0,1.42,1.16,9.76,9.76,0,0,0,1.66.58,33.38,33.38,0,0,0,4.54.81,111.61,111.61,0,0,0,12.35.68,89.68,89.68,0,0,0,12-.66,19.79,19.79,0,0,0,4.2-1,5.08,5.08,0,0,0,1.56-.89,2.66,2.66,0,0,0,.94-2c-.07-2.57-1.57-4.32-2.88-5.77a12.78,12.78,0,0,1-3.22-4.83,140.7,140.7,0,0,1-6-31.67c-.34-5.79-.39-11.6-.38-15.65,0-2,.06-3.73.14-4.95,0-.61.09-1.1.14-1.43s.19-.58,0-.27,0,0,.33-.17a11.48,11.48,0,0,1,1.62-.69c4.83-1.19,10.74-2.67,14.68-2.7.09-2.32-5.39-2.93-9.78-2a49.07,49.07,0,0,0-5.38,1.46A13.89,13.89,0,0,0,72,268a3.68,3.68,0,0,0-1.67,1.51,3.35,3.35,0,0,0-.39,1.39c-.07.48-.13,1-.17,1.72-.09,1.34-.14,3.09-.14,5.16,0,4.15.14,9.58.49,15.44.7,11.7,2.77,24.95,5.38,32.95a16.25,16.25,0,0,0,3.94,6.06c1.12,1.23,3,2.62,1.77,3.16l-.1.05a18.64,18.64,0,0,1-3.45.77,87.55,87.55,0,0,1-11.54.62,105.72,105.72,0,0,1-12-.65,31.58,31.58,0,0,1-4.07-.71,6.75,6.75,0,0,1-1.08-.37c-.21-.1-.2-.2,0,.08-1.25-1.95-3-7-4.48-12.8s-2.91-12.65-4-18.38c-2.55-13.33-1.86-34.75.18-48.1s9.07-28.74,11.66-38l.45-1.64Z"/><path class="cls-12" d="M75.65,268.1l-.9.24c-1.27,4.33-2.1,11.87-2.42,18.93-.16,3.53.42,7,.41,9.62,0,1.32,0,2.45.05,3.35A13.22,13.22,0,0,0,73,302.3l.34,1.66L75,311.42c.22-6.62-.1-17.94.17-24,.31-7,1-14.72,2.06-18.23l.48-1.63Z"/><path class="cls-12" d="M103.53,191.28l.71,1.54c6.47,14,6.73,29.49,4.83,42a86.26,86.26,0,0,1-3.92,15.86,44,44,0,0,1-2.13,5.05,11.63,11.63,0,0,1-1.48,2.32,2.91,2.91,0,0,0-.93,2,18.14,18.14,0,0,0-.26,2.41c-.09,1.87,0,4.29.07,7.15.25,5.71.88,13.1,1.66,20.65s1.72,15.27,2.61,21.61A131.11,131.11,0,0,0,107,325.3a10.65,10.65,0,0,0,3.26,5.17c.83.84,3.51,4.09,2.41,4.63a5.68,5.68,0,0,1-1.78.38,80.09,80.09,0,0,1-9.25.45A148.21,148.21,0,0,1,83,334.88l-1,.94L80.77,338l1.68.28a146.7,146.7,0,0,0,19.22,1.09,81.61,81.61,0,0,0,9.7-.47,13.35,13.35,0,0,0,3.25-.74,3.37,3.37,0,0,0,1.32-.85c.43-.46,1.16-1.8.91-2.52a16.67,16.67,0,0,0-4.16-6.67,6.52,6.52,0,0,1-2.39-3.72c-.48-1.68-1.36-6.7-2.24-13s-1.82-14-2.6-21.48-1.39-14.86-1.64-20.45c-.12-2.8-.15-5.16-.07-6.84a16.51,16.51,0,0,1,.2-1.92c.08-.42.34-.56-.09-.16a11.3,11.3,0,0,0,2.19-3.26,45.94,45.94,0,0,0,2.3-5.45,116.26,116.26,0,0,0,4.08-16.49C115.4,219.75,111.1,191.17,103.53,191.28Z"/><path class="cls-12" d="M93.39,204.89c-4.34-1.46-8.56.52-11.71,3.35a21.6,21.6,0,0,0-6.22,9.32A17.15,17.15,0,0,0,75.09,228a10.22,10.22,0,0,0,8,7.33A12.6,12.6,0,0,0,94,232.09a21.49,21.49,0,0,0,5.73-8.45,19.21,19.21,0,0,0,.85-10.26A10.83,10.83,0,0,0,93.39,204.89Zm-.81,2.41c3.32,1.11,4.87,3.59,5.49,6.6a17.21,17.21,0,0,1-.74,8.84,19.47,19.47,0,0,1-5,7.44,9.89,9.89,0,0,1-8.7,2.62,7.42,7.42,0,0,1-6.07-5.58,14.87,14.87,0,0,1,.34-8.84v-.08a20.1,20.1,0,0,1,5.5-8.17C86.15,207.66,89.38,206.22,92.58,207.3Z"/><path class="cls-12" d="M91.19,195.63a21,21,0,0,0-13.62,3.87,29,29,0,0,0-11.43,15,26.69,26.69,0,0,0-.7,16.89c1.65,5.56,5.38,10.49,11.42,12.6a20.28,20.28,0,0,0,16.73-1.09c5-2.74,9.13-7.77,11.72-14.8A32.37,32.37,0,0,0,107,210.45,18.4,18.4,0,0,0,96,196.85,16.54,16.54,0,0,0,91.19,195.63Zm-4.37,2.7a14.25,14.25,0,0,1,8.13.86A15.62,15.62,0,0,1,104.52,211a30.07,30.07,0,0,1-1.6,16.2c-2.43,6.58-6.18,11-10.55,13.44a17.59,17.59,0,0,1-14.67.92c-5.19-1.82-8.34-5.95-9.81-10.91a24.46,24.46,0,0,1,.64-15.31l0,0v-.05A26.93,26.93,0,0,1,79,201.61,20.38,20.38,0,0,1,86.82,198.33Z"/></g><g id="hi_1" data-name="hi 1"><path class="cls-13" d="M61.28,115.64c-1.84-2.27-.5-5.65.79-7.41a6,6,0,0,1,5.62-2.58,2.1,2.1,0,0,1,2,3c-.43,1-2.74,1.49-3.42,2.47a4.85,4.85,0,0,0-.85,3.65C65.56,116.37,62.84,117.55,61.28,115.64Z"/><path class="cls-13" d="M74.09,113.23c.22-1.52,1.51-1.35,2-.68s.45,1.63-.34,1.91S74.2,114.24,74.09,113.23Z"/><path class="cls-13" d="M68.7,120.92c.15-2,2-1.8,3-2.53s1.13-2.24,2.42-2,1.74,1.69,1.18,3.37-2.29,2.52-3.37,3S68.53,123.11,68.7,120.92Z"/><path class="cls-13" d="M119.61,115.62c-1.84-2.27-.78-5.42.51-7.18a7.07,7.07,0,0,1,6-3c1.68.16,3,1.45,2.41,2.91-.43,1-2.24,1.6-3.31,2.59a6.21,6.21,0,0,0-1.52,3.82C123.69,116.36,121.17,117.54,119.61,115.62Z"/><path class="cls-13" d="M131.91,112.2c.23-1.52,1.52-1.35,2-.67s.45,1.62-.34,1.9S132,113.21,131.91,112.2Z"/><path class="cls-13" d="M126.24,119.78c.15-2,2.25-1.8,3.2-2.53s1.29-2.64,2.58-2.41,1.76,1.58,1.18,3.25a5.92,5.92,0,0,1-3.53,3.77C128.56,122.27,126.08,122,126.24,119.78Z"/></g></g></svg>