<svg xmlns="http://www.w3.org/2000/svg" viewBox="0 0 163.56 202.38"><defs><style>.cls-1{fill:#fc7a7a;}.cls-2{fill:#cf3030;}.cls-3{fill:#b71515;}.cls-4{fill:#fdabab;}.cls-5{fill:#faa;}.cls-6{fill:#782121;}</style></defs><g id="Layer_2" data-name="Layer 2"><g id="line"><path class="cls-1" d="M36.64,2c-1.54-.29-4.23,1.34-4.17,3-.28,7.71-.62,15-2.29,22.55-3.38,18.18-11,36.89-17.8,54-5.87,14.8-9.77,29.25-10.3,45.22C1.14,141,4.9,157.58,13.6,169.17c12,16.36,32.31,26.51,52,29.87a120.24,120.24,0,0,0,21.59,1.64c10.41-.45,21.22-2.16,30.94-6.16,16.3-6.26,30.25-20.28,37.08-36.33,4.62-10.37,6.5-22.81,6.25-34.13.3-21.71-8-42.62-20.94-59.88a155.69,155.69,0,0,0-23.76-25.7A188.35,188.35,0,0,0,59,6.47C51.86,4.27,44.24,1.76,36.64,2Z"/><path class="cls-2" d="M13.87,153c-6.29-18-2.51-45.51,5.57-65.72s21.26-41.07,22-63.83c.33-10.57-2.92-11.9,12.8-7.41S103,34.2,125,60.25s32.16,50.54,28.56,77.49-23.8,53.46-61.09,57C56.57,198.25,23.3,179.07,13.87,153Z"/><path class="cls-3" d="M40.1,177c11.43,10.23,42.58,17.54,63.86,11.63,16.85-4.68,24.86-16.64,19.68-13.87-7.42,4-13.85,8.41-26.06,9.59-13.57,1.32-38.1-2.91-50.69-11.05C39,168.19,34.08,171.59,40.1,177Z"/><path class="cls-4" d="M27.77,88.86c-2.08-5,1.88-10.43,4.9-16.07a103.86,103.86,0,0,0,7.76-21.38c.92-4.74,4.48-7,7.35-1.7s.94,17.34-1.68,26S36.06,99.1,27.77,88.86Z"/><path class="cls-4" d="M42.4,33.67a5.51,5.51,0,0,1,7.94-4.13c3.36,1.87,3.34,5.09,2.54,7.63S49.07,41,46.21,40.34,41.92,37.19,42.4,33.67Z"/><path class="cls-5" d="M78.67,96c-5.39.28-13.14,1.11-18.11,3.38-1.47,2.17,1.28,7.45,1.45,9.78,2.9,12.55,4.3,24.76,5.36,37.58.86,2.51,6.21,1.93,8.23,2.29,8.3,0,17.29.61,24.51-4.37,7-5,7.64-18.86-.38-22.45a91.33,91.33,0,0,0-8.8-3.62c5.18-2.55,9.33-9.18,7-15.06-1.82-5.33-8.31-7.12-13.3-7.17C83,96.23,80.31,95.93,78.67,96ZM81,104.4c4.07-.54,7.38,1.35,6.3,5.63-1,3.7-4,4.38-7.27,4.75-3.94.44-9.13-1.57-7.86-6.1C73,104.43,77.35,104.38,81,104.4ZM86.22,127c5.59-.28,10.18,4,7.81,9.62-2.21,4.81-7,5.61-11.73,4.23-3.8-1.26-6.8-3.61-5.68-7.86C77.62,128.15,81.84,127.06,86.22,127Z"/><path class="cls-6" d="M84.66,94.22a59.56,59.56,0,0,0-11.79.28A55.36,55.36,0,0,0,63,96.42a14.18,14.18,0,0,0-3.19,1.33,3.85,3.85,0,0,0-1.18,1,2.53,2.53,0,0,0-.36,2.22c3.24,8.69,7.23,39.52,6.91,47.09l-.07,1.6,1.59.24c16.8,2.53,27.06.91,33.24-2.9a15.39,15.39,0,0,0,7.41-14.87,14.72,14.72,0,0,0-5.59-10.67A25.55,25.55,0,0,0,95,118.1c6.19-5.64,6.92-15.92-.27-20.8A21.5,21.5,0,0,0,84.66,94.22Zm-.32,3.69c3.51.34,6.56,1.09,8.39,2.33,5.74,3.89,4.67,13.19-1.57,16.8L88,118.89l3.43,1.35c2.87,1.13,5.87,2.26,8.13,4a10.7,10.7,0,0,1,4.24,8.18A11.44,11.44,0,0,1,98,144c-4.86,3-14.14,4.58-29.48,2.48.08-9.89-3.19-35.39-6.78-45.73a11.85,11.85,0,0,1,2.25-.9A51.7,51.7,0,0,1,73.26,98,55.56,55.56,0,0,1,84.34,97.91Z"/><path class="cls-6" d="M78.44,102.9a10.13,10.13,0,0,0-5.88,2.57,6.45,6.45,0,0,0-1.86,5.17,6.09,6.09,0,0,0,3.42,4.73,11.05,11.05,0,0,0,6.57.95,12.06,12.06,0,0,0,6.22-2.48,5.76,5.76,0,0,0,2-5.86,6.94,6.94,0,0,0-4.1-4.55A11.35,11.35,0,0,0,78.44,102.9Zm.55,3.51h0a8,8,0,0,1,4.38.31,3.11,3.11,0,0,1,2,2.18,1.87,1.87,0,0,1-.83,2.23,9,9,0,0,1-4.39,1.66,7.67,7.67,0,0,1-4.45-.58,2.38,2.38,0,0,1-1.52-1.9,2.58,2.58,0,0,1,.82-2.3A6.87,6.87,0,0,1,79,106.41Z"/><path class="cls-6" d="M84,125.77a11,11,0,0,0-6.79,2.76,8.25,8.25,0,0,0-2.41,5.74c-.15,4.81,4.79,9,11.37,8.81A11.27,11.27,0,0,0,94,140a7.72,7.72,0,0,0,2.15-6.88,9.33,9.33,0,0,0-4.53-6A10.44,10.44,0,0,0,84,125.77Zm.69,3.45a7,7,0,0,1,5,1,6,6,0,0,1,2.88,3.61,4,4,0,0,1-1.19,3.68,7.74,7.74,0,0,1-5.37,2c-5,.17-7.75-3.06-7.69-5.14a4.58,4.58,0,0,1,1.35-3.31,7.49,7.49,0,0,1,4.74-1.81Z"/><path class="cls-6" d="M34.46.42a5.7,5.7,0,0,0-4,3.45,10.47,10.47,0,0,0-.32,4.52c.71,9.08-.24,23.73-9.57,47.54C11.67,78.66-.29,99.91,0,133.88c.18,21.46,10.63,39.67,27.62,51.84s40.48,18.38,67,16.25c25-2,44.2-13.65,55.88-30.91s15.85-40.07,11.3-64.41c-5.7-30.45-25.18-54.08-46.43-71.07S71.06,8.19,57.72,4.15C45,.3,38.5-.67,34.46.42Zm.89,3.28c2.46-.66,8.86-.09,21.38,3.71,12.83,3.88,35.64,14.17,56.48,30.83s39.71,39.65,45.2,69c4.42,23.6.34,45.47-10.77,61.89s-29.22,27.47-53.33,29.41c-25.78,2.08-48.47-4-64.7-15.62s-26-28.72-26.21-49.1c-.28-33.16,11.33-53.66,20.35-76.68C33.22,33,34.29,17.72,33.53,8.12A8.71,8.71,0,0,1,33.68,5C33.91,4.37,34.12,4,35.35,3.7Z"/></g></g></svg>