<svg xmlns="http://www.w3.org/2000/svg" viewBox="0 0 163.56 362.67"><defs><style>.cls-1{fill:#c8b7b7;}.cls-2{fill:#fc7a7a;}.cls-3{fill:#cf3030;}.cls-4{fill:#b71515;}.cls-5{fill:#f84343;}.cls-6{fill:#fdabab;}.cls-7{fill:#faa;}.cls-8{fill:#782121;}.cls-9{fill:#661c1c;}</style></defs><g id="Layer_2" data-name="Layer 2"><g id="ground_shadow"><path class="cls-1" d="M63.8,348.1c12.36-.9,33,2.43,44.86.91s43-.61,45.77,5.15-15.76,8.79-27,8.49-27.33-3.68-32.73-2.73c-17.28,3-61.62,3.66-57.59-4.85C39.86,349.31,56.76,348.61,63.8,348.1Z"/></g><g id="color"><path class="cls-2" d="M36.64,2c-1.54-.29-4.23,1.34-4.17,3-.28,7.71-.62,15-2.29,22.55-3.38,18.18-11,36.89-17.8,54-5.87,14.8-9.77,29.25-10.3,45.22C1.14,141,4.9,157.58,13.6,169.17c12,16.36,32.31,26.51,52,29.87a120.24,120.24,0,0,0,21.59,1.64c10.41-.45,21.22-2.16,30.94-6.16,16.3-6.26,30.25-20.28,37.08-36.33,4.62-10.37,6.5-22.81,6.25-34.13.3-21.71-8-42.62-20.94-59.88a155.69,155.69,0,0,0-23.76-25.7A188.35,188.35,0,0,0,59,6.47C51.86,4.27,44.24,1.76,36.64,2Z"/><path class="cls-2" d="M103.29,199.43c-9.61,1.95-18.38.93-28.15.66-2.54-.08-7-.29-9.58-.38a61.28,61.28,0,0,0-20.78,26.12c-2.21,5.72-4.38,14.71-1.39,20.5,2.53,4.65,9.78,6.87,14.67,6.69,1.85-.12,5-.35,6.55-1.43.7,7.38,1,22.91-1.73,45.59-1.57,12.43-2.94,25.46-5.27,37.77-1,3.53-4.78,4.87-7,7.39-1.73,1.75-4.62,6-3.16,8.59,2.56,2.58,7.35,3.66,10.74,4.23a120,120,0,0,0,21,0c2-.53,5.84-1.14,7.31-2.82,2.82-15.38,4.66-30.39,6.92-45.86.69-5.51,2-11.43,2.42-16.94a5.59,5.59,0,0,1,.12-3.66c1.58,0,1.46,4.27,1.55,7.36,1.72,16.14,3.32,30.84,3.88,47.07.32,3.1-.47,8.28,1,11.15,2,2.73,7.72,2.82,10.69,3.45a112.23,112.23,0,0,0,22.81-.44c2.07-.5,6.58-2.52,6.46-5.28-.95-3.83-5.16-6.12-7.6-8.95-2.31-1.8-1.87-6.77-2.51-9.31-2.08-16.62-4.51-32.56-5.87-49.24,0-9.24-.88-27.12-1.42-33.69a17.2,17.2,0,0,0,4.62-2.44c2.23-3,2.28-8,1.91-11.53-2-10.87-8.38-21.62-16.38-29.22a39.4,39.4,0,0,0-7.85-6.34C106.18,198.63,104.34,199.23,103.29,199.43Z"/></g><g id="shadow"><path class="cls-3" d="M13.87,153c-6.29-18-2.51-45.51,5.57-65.72s21.26-41.07,22-63.83c.33-10.57-2.92-11.9,12.8-7.41S103,34.2,125,60.25s32.16,50.54,28.56,77.49-23.8,53.46-61.09,57C56.57,198.25,23.3,179.07,13.87,153Z"/><path class="cls-3" d="M65.27,247.44c-4.26.9-15.88,2.7-17.47-5.88s3.4-17.81,7.38-23.8c4.73-7.13,14.22-16.22,15.81-17.17s10.16,1.27,15.24.63,14.93-2.54,17.15-3.18,12.18,10.8,14.59,14.7a60.62,60.62,0,0,1,8,20.56c.63,4.45.68,9.31-1.23,9s-1.32-7.08-3.54-11.85-6.67-16.2-9.21-19.69a220,220,0,0,1,6.67,24.77c1.66,8.63,3.33,23,2.86,32-.39,7.25-2.52,8.31-2.07,9.34.29.65,4.72,25.6,5.67,35.76.74,7.93,2.75,19.51,2.75,26.5,0,1.71,6.67,4.45,7,8.89s-22.55,4.13-25.73,1.91-2.86-7.31-2.22-13.66-6-51.14-5.72-51.45,6.24-.91,6-1.59c-1-3.18-14.3-3.5-15.25,1.9-.67,3.81-6.35,46.06-7.94,53.37-.43,2,1.88,7.32-2.86,11.11-3.79,3-22.19,2.94-25.41-.32-3.8-3.84,3.75-8.34,6.67-10.16,2.66-1.65,7.31-56.22,7.94-68.29s-1.14-37.72-2.86-42.56c-3.1-8.74-3.49-5.4-4.13-6.67S65.59,243.94,65.27,247.44Z"/><path class="cls-4" d="M40.1,177c11.43,10.23,42.58,17.54,63.86,11.63,16.85-4.68,24.86-16.64,19.68-13.87-7.42,4-13.85,8.41-26.06,9.59-13.57,1.32-38.1-2.91-50.69-11.05C39,168.19,34.08,171.59,40.1,177Z"/><path class="cls-4" d="M79.85,271.82c3-7.5,11.25-1.75,19.5-5.5s12.75-15.75,14.25-22.5,6.49,14.37,3.75,24C113.51,281.28,76,280,79.85,271.82Z"/><path class="cls-4" d="M65.19,348.45c3.87,2.54,16.69.6,16.4-4.76s1.57-11.46,1.54-16.51c0-3.63-3.57.37-5.87,10.39C76.08,342.66,60.76,345.53,65.19,348.45Z"/><path class="cls-4" d="M109.52,327.16c-.15,2.51.57,8.71.17,11.31-.49,3.19-1.77,8,4.6,9.59s12.41-.79,5-3.74c-3.2-1.28-5.37-6.26-6.07-12.36C112.55,326.14,109.68,324.54,109.52,327.16Z"/><path class="cls-4" d="M68.24,199.69c6.76,6.1,16.19,8.76,25.72,8.22,8.76-.49,14.06-5.83,13.79-8.22s-1.59-.27-7.16.26S73.54,201,68.24,199.69Z"/></g><g id="hi"><path class="cls-5" d="M58,155.16A3.64,3.64,0,0,1,55.85,158a9.61,9.61,0,0,1-9.42-.51,3.66,3.66,0,0,1-1.79-3.08,3.62,3.62,0,0,1,2.12-2.86,9.59,9.59,0,0,1,9.41.51A3.66,3.66,0,0,1,58,155.16Z"/><path class="cls-5" d="M144.33,153.85c.25,2.31-2.52,4.5-6.19,4.89s-6.83-1.16-7.08-3.47,2.53-4.51,6.19-4.9a8.91,8.91,0,0,1,4.82.73A3.65,3.65,0,0,1,144.33,153.85Z"/><path class="cls-6" d="M65.69,208.43c3-3.55,5.71-4.46,6.79-3.33,1.24,1.29-1,5.81-3.08,7.87s-4.29,3.81-6.2,2.39S64.09,210.33,65.69,208.43Z"/><path class="cls-6" d="M54.15,225.49A1.49,1.49,0,0,1,57,226c.16,1.58-1.2,3.26-2.48,2.46S53.53,226.82,54.15,225.49Z"/><path class="cls-6" d="M116.72,289.68c-.22-6,2.07-8.26,3.18-6.67s1.59,6.65,1.59,8.71-1.27,5.11-2.7,4S116.82,292.22,116.72,289.68Z"/><path class="cls-6" d="M69,316.3c0-2.07,1.36-4.39,2.63-3.12s1.11,2.7.64,4.61S69,320.58,69,316.3Z"/><path class="cls-6" d="M64.13,341.06c-1.08-1.07,1.64-5.16,1.93-6.59.51-2.47.48-4.45,1.59-6.52s3.18-.63,3,3.18S67.4,344.31,64.13,341.06Z"/><path class="cls-6" d="M27.77,88.86c-2.08-5,1.88-10.43,4.9-16.07a103.86,103.86,0,0,0,7.76-21.38c.92-4.74,4.48-7,7.35-1.7s.94,17.34-1.68,26S36.06,99.1,27.77,88.86Z"/><path class="cls-6" d="M42.4,33.67a5.51,5.51,0,0,1,7.94-4.13c3.36,1.87,3.34,5.09,2.54,7.63S49.07,41,46.21,40.34,41.92,37.19,42.4,33.67Z"/><path class="cls-7" d="M84,218.5c-4.26.78-7,6.26-8.18,9.81-1.66,6.89-1.45,15.64-1,22.7-.17,2.5,5.27,2.05,5.49.24.44-3.2-.19-6.92.84-10a7.64,7.64,0,0,1,8-.1c1.94,3.11.27,7.14,2.2,10.27,2.07,1.11,4.52-2.21,4.47-3.73,0-8.44-2-18.49-6.31-25.78C88.45,220.39,86,218.37,84,218.5ZM89,231.85c.68,2.73-2,2.8-3.84,2.94s-5.13.53-4.42-2.22c.38-2.94,1.66-6,3.23-6.71C86.57,225.34,88.37,229.33,89,231.85Z"/><path class="cls-7" d="M97.84,219.6C99,228.7,99.5,241,101,250c1.89,1.4,5.72.27,7.93.56,3.4.19,9-1.61,9.5-5.63.59-4.19-1.12-9.56-4.46-12.33-2.53-1.41-1-2.61.15-4.52,1.69-4.33-1.91-10.74-6.8-11C103.53,216.66,97.36,217.8,97.84,219.6Zm9,3.05c3.22.1,4,3.27,1.79,5.46-2.72,2.92-6.63-.3-4.94-3.72C104.25,223.12,105.44,222.75,106.8,222.65Zm2.51,15.2c3.82.28,5.12,4.18,1.63,6.08-2.93,2.43-6.29-.25-5.55-3.68C105.67,238.13,107.15,237.67,109.31,237.85Z"/></g><g id="line"><path class="cls-8" d="M109,169.42a1.3,1.3,0,0,0-1.16.85c-.35,1-1.87,2.25-4.26,3.14A29.37,29.37,0,0,1,94.82,175a28.68,28.68,0,0,1-9.13-1.05c-2.66-.83-4.63-2.14-5.52-3.79a1.32,1.32,0,0,0-.76-.61,1.29,1.29,0,0,0-1,.1,1.34,1.34,0,0,0-.61.77,1.26,1.26,0,0,0,.1,1c1.36,2.48,4,4.05,7,5a30.3,30.3,0,0,0,10,1.16,31.21,31.21,0,0,0,9.55-1.73c2.74-1,5-2.43,5.79-4.67a1.29,1.29,0,0,0-.78-1.63A1.5,1.5,0,0,0,109,169.42Z"/><path class="cls-9" d="M50.6,112.91a.84.84,0,0,0-.79.62.82.82,0,0,0,.07.65.85.85,0,0,0,.51.4c3.11.88,19.57,6.8,22.88,8.06a.85.85,0,1,0,.61-1.59c-3.41-1.3-19.53-7.12-23-8.11Z"/><path class="cls-9" d="M51.26,110.12a.84.84,0,0,0-.82.57.82.82,0,0,0,0,.65.8.8,0,0,0,.49.43c4.69,1.58,16.35,6,22.71,8.84a.85.85,0,1,0,.71-1.54c-6.49-2.95-18.1-7.3-22.88-8.91A.73.73,0,0,0,51.26,110.12Z"/><path class="cls-9" d="M52.4,107.49a.85.85,0,0,0-.31,1.65c2.58.91,7.34,2.78,11.86,4.66s8.85,3.82,10.4,4.73a.87.87,0,0,0,.65.08.89.89,0,0,0,.52-.39.87.87,0,0,0,.08-.65.89.89,0,0,0-.39-.52c-1.82-1-6.07-2.92-10.61-4.81s-9.29-3.77-11.94-4.7A.8.8,0,0,0,52.4,107.49Z"/><path class="cls-9" d="M133.47,108a.72.72,0,0,0-.29.06c-3,1.21-14,6.75-18.33,9.91a.87.87,0,0,0-.34.55.9.9,0,0,0,.16.64.87.87,0,0,0,.56.34.88.88,0,0,0,.63-.16c3.92-2.88,15.33-8.64,18-9.7a.85.85,0,0,0,.46-1.11A.82.82,0,0,0,133.47,108Z"/><path class="cls-9" d="M134.56,110.62a.92.92,0,0,0-.28,0,145,145,0,0,0-18.67,9.47.85.85,0,0,0,.28,1.55.9.9,0,0,0,.64-.12,149.16,149.16,0,0,1,18.35-9.3.85.85,0,0,0,.49-1.1A.83.83,0,0,0,134.56,110.62Z"/><path class="cls-9" d="M135.48,113.19a.92.92,0,0,0-.29,0,85.2,85.2,0,0,0-8.85,3.81c-3.61,1.72-7.35,3.62-9.58,4.88a.84.84,0,0,0-.33,1.15.85.85,0,0,0,1.16.32c2.17-1.21,5.9-3.1,9.48-4.81a89.31,89.31,0,0,1,8.63-3.72.9.9,0,0,0,.5-.42.92.92,0,0,0,.06-.65A.84.84,0,0,0,135.48,113.19Z"/><path class="cls-9" d="M54.91,134.74c3.32,4.54,14,4.92,17.32,1.09,1.89-2.14,3.75,1.43,1.4,4.13-4,4.64-17.13,5.31-20.48-1.49C51.69,135.5,53.94,133.41,54.91,134.74Z"/><path class="cls-9" d="M118.43,136.56c3.85,2.18,10.82,3.42,15.26-.79,3.17-3,3.84,1.19,1.46,4.1-2.56,3.14-11.06,6.27-17.48,1.36C114.69,139,115.42,134.86,118.43,136.56Z"/><path class="cls-8" d="M34.46.42a5.7,5.7,0,0,0-4,3.45,10.47,10.47,0,0,0-.32,4.52c.71,9.08-.24,23.73-9.57,47.54C11.67,78.66-.29,99.91,0,133.88c.18,21.46,10.63,39.67,27.62,51.84s40.48,18.38,67,16.25c25-2,44.2-13.65,55.88-30.91s15.85-40.07,11.3-64.41c-5.7-30.45-25.18-54.08-46.43-71.07S71.06,8.19,57.72,4.15C45,.3,38.5-.67,34.46.42Zm.89,3.28c2.46-.66,8.86-.09,21.38,3.71,12.83,3.88,35.64,14.17,56.48,30.83s39.71,39.65,45.2,69c4.42,23.6.34,45.47-10.77,61.89s-29.22,27.47-53.33,29.41c-25.78,2.08-48.47-4-64.7-15.62s-26-28.72-26.21-49.1c-.28-33.16,11.33-53.66,20.35-76.68C33.22,33,34.29,17.72,33.53,8.12A8.71,8.71,0,0,1,33.68,5C33.91,4.37,34.12,4,35.35,3.7Z"/><path class="cls-8" d="M62.31,219.09l.11,1.69c.64,9.54,1.76,43.16.18,61.2-.42,4.83-1.91,18.38-3.47,30.83-.77,6.22-1.57,12.18-2.25,16.64-.35,2.24-.66,4.1-.92,5.41-.14.65-.26,1.17-.35,1.49,0,.06,0,.07,0,.11l-2.17,1.59a37.91,37.91,0,0,0-4.13,3.42,14.94,14.94,0,0,0-3.46,4.75,7.14,7.14,0,0,0,.15,6.07,6.48,6.48,0,0,0,3.42,2.76,24.2,24.2,0,0,0,5.18,1.48,74.88,74.88,0,0,0,13.51,1,79.44,79.44,0,0,0,13.05-1,23,23,0,0,0,4.63-1.26c1.26-.52,2.5-1.11,2.85-2.7.94-4.23,2.94-18.06,4.94-32.29s4-28.71,4.68-33.55l.24-1.69-3.36-.49-.25,1.68c-.73,4.93-2.69,19.36-4.68,33.58s-4.08,28.36-4.89,32c.11-.48,0-.06-.84.31a20.61,20.61,0,0,1-3.93,1,76.63,76.63,0,0,1-12.46,1,72.07,72.07,0,0,1-12.87-.94,21.56,21.56,0,0,1-4.44-1.24A4.09,4.09,0,0,1,49,350.71a3.39,3.39,0,0,1,0-3.17,12,12,0,0,1,2.7-3.64,36.12,36.12,0,0,1,3.76-3.11,30.23,30.23,0,0,0,2.7-2,1.77,1.77,0,0,0,.54-.84,6.4,6.4,0,0,0,.23-.66c.14-.48.27-1.05.41-1.76.28-1.41.6-3.3,1-5.56.69-4.52,1.49-10.5,2.27-16.74,1.55-12.49,3.05-26,3.48-31C67.13,268.82,68.13,225.89,62.31,219.09Z"/><path class="cls-8" d="M67.36,198.62l-1.85-.8c-8.11,5.2-15.8,14.41-20.63,23.91s-7,19.47-2.63,26.16c3,4.63,8.22,6.3,12.72,6.74a27.66,27.66,0,0,0,9.91-.72l1.62-.51-1-3.24-1.62.5a27.27,27.27,0,0,1-8.57.58c-3.93-.39-7.93-1.76-10.21-5.23-3.19-4.85-1.75-13.76,2.82-22.74S60,205.42,67.34,200.69l1.43-.92Z"/><path class="cls-8" d="M63.47,235.44l-.85,1.48A30.44,30.44,0,0,1,59,241l-1.27,1.13c2,3.1,6.73-1.61,7.8-3.47l.1-.62Z"/><path class="cls-8" d="M108.44,197.18,106.53,200l1.41.95a52.2,52.2,0,0,1,17.35,20.36c3.5,7.14,4.88,13.92,4.85,17.43,0,3.92-1.07,5.66-2.11,6.59a5.34,5.34,0,0,1-3.13,1.25l-1.68.21.41,3.38,1.69-.21a8.9,8.9,0,0,0,5-2.09c1.84-1.65,3.22-4.55,3.24-9.11,0-4.37-1.49-11.37-5.19-18.94a55.49,55.49,0,0,0-18.5-21.68Z"/><path class="cls-8" d="M107.93,207.44l1.07,1.32c7.11,8.74,11.27,23.61,13.44,37.24a169.32,169.32,0,0,1,2.2,29.84,103.23,103.23,0,0,0,.83,12.79c.59,5.91,1.43,13.05,2.3,20.05s1.75,13.84,2.44,19.14,1.2,9.17,1.27,9.82c.16,1.63,1.2,2.63,2.25,3.62s2.26,1.94,3.36,3a12.83,12.83,0,0,1,2.67,3.19,4.67,4.67,0,0,1,.53,3.44c0,.26-.27.6-1,1a11.93,11.93,0,0,1-3.42,1.15,55.4,55.4,0,0,1-11.16.78c-4.15-.05-8.41-.36-11.86-.75a48.17,48.17,0,0,1-6.88-1.17,4.22,4.22,0,0,1-2.72-3.2,14.17,14.17,0,0,1-.16-5.5,21.29,21.29,0,0,0,0-3.71c-.09-1.72-.23-3.94-.43-6.48-.38-5.1-1-11.52-1.57-17.88s-1.25-12.66-1.77-17.51c-.27-2.42-.5-4.48-.69-6-.09-.76-.18-1.4-.24-1.88a9.47,9.47,0,0,0-.19-1.1L97.75,287l-2.65-.22-.22,2.72c0-.09.06.27.12.72s.14,1.07.23,1.82c.19,1.51.42,3.55.68,6,.53,4.83,1.17,11.12,1.78,17.47s1.18,12.74,1.56,17.8c.19,2.53.34,4.72.42,6.39s0,3,0,3.07a17,17,0,0,0,.24,6.9,7.92,7.92,0,0,0,4.83,5.47,38.35,38.35,0,0,0,7.66,1.36c3.57.4,7.92.73,12.21.78a58.26,58.26,0,0,0,11.89-.86,15.08,15.08,0,0,0,4.43-1.53,5.15,5.15,0,0,0,2.65-3.26,8.41,8.41,0,0,0-.86-5.77,15.7,15.7,0,0,0-3.36-4.08c-1.23-1.14-2.47-2.12-3.34-2.94a6.21,6.21,0,0,1-1.2-1.48c-.1-1-.58-4.63-1.27-9.92s-1.59-12.14-2.45-19.12-1.69-14.11-2.29-20A114.32,114.32,0,0,1,128,276a166.36,166.36,0,0,0-2.24-30.58C123.5,231.16,113.93,203.75,107.93,207.44Z"/><path class="cls-8" d="M101.12,282.44c-6,1.42-9.88,3.35-7.78,5.81a47.71,47.71,0,0,1,8.39-2.8,37.66,37.66,0,0,1,6.36-.61l1.7-.09C110.1,282,105.61,281.38,101.12,282.44Z"/><path class="cls-8" d="M83.64,217.45a7.53,7.53,0,0,0-5.09,3.07,20.88,20.88,0,0,0-3.39,6.87c-1.77,5.63-2.56,13.26-2.09,22l.06,1.2a4.58,4.58,0,0,0,4.53,4.14,4.06,4.06,0,0,0,3.15-1.2,5,5,0,0,0,1.3-3.64c-.06-2.84,0-5.68.13-7.64a2,2,0,0,1,.49-.28,8.58,8.58,0,0,1,2.38-.48,10.34,10.34,0,0,1,2.49.09,2.32,2.32,0,0,1,.52.16c.08.41.23,1.77.33,3.31a44.4,44.4,0,0,0,.47,4.84,4,4,0,0,0,4.77,3.3A4.34,4.34,0,0,0,96.37,251a9.63,9.63,0,0,0,.88-4.74,58.75,58.75,0,0,0-3.69-18.95,23.36,23.36,0,0,0-4-7.07C87.91,218.41,85.89,217.23,83.64,217.45Zm.25,2.54c1.24-.12,2.45.48,3.73,1.91a21.33,21.33,0,0,1,3.56,6.3,56.88,56.88,0,0,1,3.52,18.09,7.32,7.32,0,0,1-.59,3.48,1.65,1.65,0,0,1-1,1,1.44,1.44,0,0,1-1.65-1.29c-.2-1.08-.32-2.87-.43-4.53a20.2,20.2,0,0,0-.45-4.13,2.07,2.07,0,0,0-1.12-1.25,4.69,4.69,0,0,0-1.34-.44,12.59,12.59,0,0,0-3.16-.13,10.57,10.57,0,0,0-3.15.66,4.13,4.13,0,0,0-1.31.8,2.41,2.41,0,0,0-.77,1.59c-.1,2-.2,5-.13,8a2.37,2.37,0,0,1-.56,1.8,1.49,1.49,0,0,1-1.19.43c-.93,0-2.08-.75-2.19-2.93-.46-8.52.34-15.91,2-21.12a18.78,18.78,0,0,1,3-6A5,5,0,0,1,83.89,220Z"/><path class="cls-8" d="M84.9,224.31a3.44,3.44,0,0,0-2.47,1.32A8.7,8.7,0,0,0,81,228.11a19.85,19.85,0,0,0-1.25,5.9,1.94,1.94,0,0,0,.94,1.64,4.09,4.09,0,0,0,1.33.48,13,13,0,0,0,3.13.22,13.57,13.57,0,0,0,3.11-.43,4,4,0,0,0,1.28-.57,1.91,1.91,0,0,0,.84-1.69,21.32,21.32,0,0,0-1.47-5.73,8.63,8.63,0,0,0-1.48-2.42A3.39,3.39,0,0,0,84.9,224.31Zm.08,2.55c.11,0,.27,0,.59.38a6.31,6.31,0,0,1,1,1.7,18.23,18.23,0,0,1,1.14,4.47l-.14.05a11.41,11.41,0,0,1-2.5.33,11.12,11.12,0,0,1-2.52-.15l-.13,0a17.47,17.47,0,0,1,1-4.56,6.32,6.32,0,0,1,1-1.74C84.67,226.93,84.87,226.86,85,226.86Z"/><path class="cls-8" d="M102.89,215.83A11,11,0,0,0,98.54,217,4.43,4.43,0,0,0,97,218.37a3.14,3.14,0,0,0-.48,2.13c.49,3.58,2.06,19.51,3.13,30.16a1.44,1.44,0,0,0,1.4,1.27,8.79,8.79,0,0,0,1.14.1c.87.05,2,.05,3.22,0,2.44,0,5.14-.14,6.58-.31a9.61,9.61,0,0,0,5.28-2.15c1.73-1.54,2.9-4.17,2.56-8A14.38,14.38,0,0,0,114.09,231a9,9,0,0,0,1.69-6.07,10.29,10.29,0,0,0-3.59-7C109.86,216,106.15,215.55,102.89,215.83Zm.22,2.55c2.76-.24,6.12.44,7.46,1.54a7.85,7.85,0,0,1,2.67,5.27,6.34,6.34,0,0,1-1.6,5.13l-1,1,1.08.91c2.28,1.92,5.08,3.88,5.58,9.6.29,3.29-.59,4.89-1.71,5.89a7.34,7.34,0,0,1-3.89,1.52c-1.18.14-3.94.28-6.31.3-1.19,0-2.29,0-3.06,0l-.23,0c-1.06-10.6-2.53-25.58-3-29.31a.41.41,0,0,1,.09-.37,1.87,1.87,0,0,1,.66-.55A8.81,8.81,0,0,1,103.11,218.38Z"/><path class="cls-8" d="M105.83,221.74a3.89,3.89,0,0,0-2.86,1.65,4.07,4.07,0,0,0-.7,2.87,4.77,4.77,0,0,0,1.22,2.55,4.08,4.08,0,0,0,6.08-.16,4.41,4.41,0,0,0,.85-3A4.23,4.23,0,0,0,105.83,221.74Zm.22,2.54a1.77,1.77,0,0,1,1.82,1.54,1.93,1.93,0,0,1-.31,1.25,1.52,1.52,0,0,1-2.2,0,2.44,2.44,0,0,1-.56-1.16,1.71,1.71,0,0,1,.26-1.07A1.2,1.2,0,0,1,106.05,224.28Z"/><path class="cls-8" d="M108.07,236.29a4.7,4.7,0,0,0-3.83,5.06,5.3,5.3,0,0,0,1.12,3.09,4.77,4.77,0,0,0,3.51,1.62,4.59,4.59,0,0,0,4.59-5.2A4.91,4.91,0,0,0,108.07,236.29Zm.39,2.52a2.54,2.54,0,0,1,2.46,2.3c.14,1.5-.66,2.46-1.94,2.4a2,2,0,0,1-1.65-.7,2.86,2.86,0,0,1-.54-1.61A2,2,0,0,1,108.46,238.81Z"/></g></g></svg>