<svg xmlns="http://www.w3.org/2000/svg" viewBox="0 0 163.56 202.38"><defs><style>.cls-1{fill:#fc7a7a;}.cls-2{fill:#cf3030;}.cls-3{fill:#b71515;}.cls-4{fill:#fdabab;}.cls-5{fill:#782121;}.cls-6{fill:#faa;}</style></defs><g id="Layer_2" data-name="Layer 2"><g id="line"><path class="cls-1" d="M36.64,2c-1.54-.29-4.23,1.34-4.17,3-.28,7.71-.62,15-2.29,22.55-3.38,18.18-11,36.89-17.8,54-5.87,14.8-9.77,29.25-10.3,45.22C1.14,141,4.9,157.58,13.6,169.17c12,16.36,32.31,26.51,52,29.87a120.24,120.24,0,0,0,21.59,1.64c10.41-.45,21.22-2.16,30.94-6.16,16.3-6.26,30.25-20.28,37.08-36.33,4.62-10.37,6.5-22.81,6.25-34.13.3-21.71-8-42.62-20.94-59.88a155.69,155.69,0,0,0-23.76-25.7A188.35,188.35,0,0,0,59,6.47C51.86,4.27,44.24,1.76,36.64,2Z"/><path class="cls-2" d="M13.87,153c-6.29-18-2.51-45.51,5.57-65.72s21.26-41.07,22-63.83c.33-10.57-2.92-11.9,12.8-7.41S103,34.2,125,60.25s32.16,50.54,28.56,77.49-23.8,53.46-61.09,57C56.57,198.25,23.3,179.07,13.87,153Z"/><path class="cls-3" d="M40.1,177c11.43,10.23,42.58,17.54,63.86,11.63,16.85-4.68,24.86-16.64,19.68-13.87-7.42,4-13.85,8.41-26.06,9.59-13.57,1.32-38.1-2.91-50.69-11.05C39,168.19,34.08,171.59,40.1,177Z"/><path class="cls-4" d="M27.77,88.86c-2.08-5,1.88-10.43,4.9-16.07a103.86,103.86,0,0,0,7.76-21.38c.92-4.74,4.48-7,7.35-1.7s.94,17.34-1.68,26S36.06,99.1,27.77,88.86Z"/><path class="cls-4" d="M42.4,33.67a5.51,5.51,0,0,1,7.94-4.13c3.36,1.87,3.34,5.09,2.54,7.63S49.07,41,46.21,40.34,41.92,37.19,42.4,33.67Z"/><path class="cls-5" d="M34.46.42a5.7,5.7,0,0,0-4,3.45,10.47,10.47,0,0,0-.32,4.52c.71,9.08-.24,23.73-9.57,47.54C11.67,78.66-.29,99.91,0,133.88c.18,21.46,10.63,39.67,27.62,51.84s40.48,18.38,67,16.25c25-2,44.2-13.65,55.88-30.91s15.85-40.07,11.3-64.41c-5.7-30.45-25.18-54.08-46.43-71.07S71.06,8.19,57.72,4.15C45,.3,38.5-.67,34.46.42Zm.89,3.28c2.46-.66,8.86-.09,21.38,3.71,12.83,3.88,35.64,14.17,56.48,30.83s39.71,39.65,45.2,69c4.42,23.6.34,45.47-10.77,61.89s-29.22,27.47-53.33,29.41c-25.78,2.08-48.47-4-64.7-15.62s-26-28.72-26.21-49.1c-.28-33.16,11.33-53.66,20.35-76.68C33.22,33,34.29,17.72,33.53,8.12A8.71,8.71,0,0,1,33.68,5C33.91,4.37,34.12,4,35.35,3.7Z"/><path class="cls-6" d="M69.28,96.47c-6,3.55-10.06,11-11.76,17.52-3.06,13,3.29,31.31,16.13,36.87,7.55,3.4,18.06.14,23.83-5.52,7.43-7,7.82-19.39,5.81-28.78-2.14-9.79-9.08-21.3-19.77-22.89C78.89,92.48,73.2,94,69.28,96.47ZM93.57,111.9c3.28,7.71,3.69,17.69-2.25,24-4.64,4.64-12,6.28-16.75,1.15-8.27-8.42-8.95-22.59-.51-30.81C77.82,101.62,89.25,103.08,93.57,111.9Z"/><path class="cls-5" d="M79.4,102.3c-5.48,1-8.83,5.54-10.55,10.39a26.45,26.45,0,0,0-1.22,13.57,21,21,0,0,0,5.66,11.33,12.46,12.46,0,0,0,12.83,3.15A15.35,15.35,0,0,0,95.86,131a26.11,26.11,0,0,0,1.19-12.35,23.38,23.38,0,0,0-5-11.44C89.1,103.78,84.74,101.36,79.4,102.3Zm.54,3c4.19-.74,7.28,1,9.69,3.85A21,21,0,0,1,94,119.07a23.67,23.67,0,0,1-1,10.86c-1.32,3.58-3.65,6.55-7.77,7.86a9,9,0,0,1-9.71-2.42,18.18,18.18,0,0,1-4.79-9.63v-.1a24.5,24.5,0,0,1,1.12-11.91C73.28,109.47,75.89,106.07,79.94,105.35Z"/><path class="cls-5" d="M71.67,93.71c-5.38,2.27-9.54,6.78-12.29,12.05a35.39,35.39,0,0,0-3.49,22.62A32.5,32.5,0,0,0,65,146.81c5,5,11.84,8.06,19.52,6.8a24.65,24.65,0,0,0,17.21-10.9c3.76-5.84,5.22-13.6,3.91-22.61-1-7.09-3.78-14.37-8.43-19.79a22.37,22.37,0,0,0-19.73-8.07A20.2,20.2,0,0,0,71.67,93.71Zm-3.1,5.42a17.33,17.33,0,0,1,9.18-3.81c7.4-.74,12.93,2.19,17.07,7s6.76,11.61,7.72,18.22c1.24,8.43-.17,15.39-3.44,20.49s-8.44,8.41-15.11,9.51-12.37-1.5-16.83-5.94a29.65,29.65,0,0,1-8.22-16.7v-.06l0-.06a32.72,32.72,0,0,1,3.21-20.6A25,25,0,0,1,68.57,99.13Z"/></g></g></svg>