<svg xmlns="http://www.w3.org/2000/svg" viewBox="0 0 167.66 361.35"><defs><style>.cls-1{fill:#c8b7b7;}.cls-2{fill:#fc7a7a;}.cls-3{fill:#cf3030;}.cls-4{fill:#9e1d1d;}.cls-5{fill:#fc6464;}.cls-6{fill:#eb4d4d;}.cls-7{fill:#b71515;}.cls-8{fill:#f84343;}.cls-9{fill:#fdabab;}.cls-10{fill:#faa;}.cls-11{fill:#782121;}.cls-12{fill:#661c1c;}</style></defs><g id="Layer_2" data-name="Layer 2"><g id="ground_shadow"><path class="cls-1" d="M55.85,344.68c10-3.94,43.95-1.82,53,1.52s7.89,5.45,18.49,5.15,27.89.3,29.1,3.94-15.76,6.06-29.1,6.06-23.94-.3-26.37-3-8.48-4.55-22.12-4.55S43.12,350.14,55.85,344.68Z"/></g><g id="color"><path class="cls-2" d="M23.83,1.92C18.52,2,10.88,2.59,6.65,6.31c-.94,2,1.46,4.59,2.32,6.11a31.37,31.37,0,0,1,7.2,21c.81,19.17-7.31,36.44-11.1,55a130,130,0,0,0-2.25,36.82c1.86,16.87,9.37,35.37,22.33,46.64,15,13.24,35.91,20.06,55.71,21,16.87.46,34.82-.83,49.24-10.36,15.86-10.72,28.57-28.76,32.16-47.61,4.86-23.62-3.29-50.23-16.31-70C130.47,41.34,108.06,22,81.72,11.65A163.62,163.62,0,0,0,23.83,1.92Z"/><path class="cls-2" d="M128.8,183.93c-11.92,5.93-24.89,9.6-38.21,9.65-8,.32-16.19-1.08-24.11-1.88-4.78.05-8.94,5.33-11.82,8.53-8.5,12.23-20.33,21.79-30.19,32.83-2.48,2.38.53,9.26,3.73,9.29,9.78,1.2,19.18-5.24,27.14-10,6-3.67,8.06-5.5,13.62-9.67a91.11,91.11,0,0,1,1,10.7c.73,11.2.55,21.67,2,32.82,2.24,8.79,8.68,16,14.56,22.63,13.41,14.17,28.59,28.4,44.18,40.15,2.59,1.76,6.68,3.83,9.89,1.49,7-4.3,12.52-11.72,16.86-18.48,1.85-3.55,4.94-9.52,2.4-13.56-2.18-3-6.66-5-10-3.12-3,1.08-6.87,2.93-9.48,0-10.81-9.54-18.4-16.81-30.42-24.82a14.31,14.31,0,0,1-3.42-2.9c1.6.6,3.29,3.21,5.8.26,1.54-1.35,2.77-2.5,3.71-.41-1.13,1-3.58,1.53-4.62,2.89a96.26,96.26,0,0,0,9.85,7.67c11.47-20.16,11-47.45.88-67.93-2-4.3-4-5.95-6.24-9.73,3.67,4.17,4.08,5.51,7.29,9.16,3.94-.51,8.79-2.72,12.46-4.24,10.2-5.22,20.57-11.76,27.9-20.74,1.28-1.71,3.47-7.16.65-8.58C158.72,172.05,137.18,181.36,128.8,183.93Z"/><path class="cls-2" d="M78.56,284.55c-5.12,9.82-8.28,19.51-15.14,28.26a15,15,0,0,0-4.56,12.25c.49,8.61,5.8,19.06,14.75,21.47,4.83,1.41,11.67,1.76,16.35-.24,2.68-1.88,1-7.6.94-10.24-.84-3.84-1.34-6.34.94-9.78a202.22,202.22,0,0,1,12-19.57c-2.34-3.32-7.08-7-9.9-10-4.48-4.34-9.49-9.91-13.68-14.44Z"/></g><g id="shadow"><path class="cls-3" d="M13.66,134.46C10.63,120,12.39,97.3,20,74.12s9.63-38.32,4.44-51.78C21.4,14.39,20,11.86,41.61,12.81s54.05,11.86,80.81,36.9c31.17,29.17,37.35,58.06,33.22,83.16s-25.73,50.51-59.71,53.37S21.43,171.47,13.66,134.46Z"/><path class="cls-3" d="M86.74,342.89c-3.59,1.79-13.61,1.83-19-5.58s-4.84-14-3.27-18,2.61-3.33,5.31-7.15,10-17.58,13.72-26c4.22,4.86,17.35,18.36,17.35,18.36s-14.3,18.7-14.6,24C85.79,336.62,89.08,341.54,86.74,342.89Z"/><path class="cls-3" d="M72.33,193.27c-9.21,2-11.23,5.84-14.15,10.1s-18,21.79-23.81,26.28c-4.74,3.65-10.1,8.54-1.79,8.09s23.13-11,27.4-14.15A114.39,114.39,0,0,0,71.4,214c2.54-2.94,4.07,9.62,4.52,19.95.31,7-.9,22.91,2,31.22s12.81,20.44,22,30.09,32.5,31.08,38.34,30.63,18.69-18.55,18.36-22.58c-.84-10.48-14.7-.19-17.17,0s-38.4-37.06-41.55-38,17.75-2,18.19-2,0,2.7-1.79,4-4,2.7-4,2.7,4.49,6.74,6.51,5.16,7.19-12.35,9-23.13,0-23-1.35-28.3c-2-7.63-3.59-14.37-4.71-17.74,6.79-.13,17.86-5.78,22.91-9,9.47-6,19.3-14.26,18-16.62-2-3.6-14.14,1.42-21.56,3.81-6.59,2.13-18,2.7-19.76,3.6-4.59,2.29-19.32,6.06-27.85,6.29A174,174,0,0,1,72.33,193.27Z"/><path class="cls-4" d="M70.78,139.37c-1.47.15-3.43-.16-4.52.75.18,5.06.52,10.38,2.94,14.9,2.34-1.57,4.33-3.9,6.91-5.26,8.62-5,19.27-5.16,28.73-2.83a28.13,28.13,0,0,1,13.49,7.78c1.19,1.21,1.79-.92,2.1-1.78.82-2.82,2.18-5.77,1.79-8.75-1-1.65-3.46-1.25-5.1-1.73-15-1.79-30-2.76-45-3.09Z"/><path class="cls-5" d="M92.9,147.37c-6.88,0-14,1.9-19.27,6.48-1,1.16-2.63,2.05-3.18,3.46,3.56,6.21,10.16,10.31,17,12a30.2,30.2,0,0,0,14.54.45c6.77-1.27,12.17-6.14,15.94-11.69-1.28-3.44-4.9-5.47-8.05-7.13A36,36,0,0,0,92.9,147.37Z"/><path class="cls-6" d="M69.63,156.66c4.27-6.07,14.15-10.56,24-10.11s17.74,2.7,20,4.72a49.85,49.85,0,0,1,5.39,6.51s-1.57,4.27-2.47,2.7-8.32-9.25-21.78-9c-14.16.28-21.11,7.41-22,9.44S69.63,158.23,69.63,156.66Z"/><path class="cls-7" d="M91.57,256.5c1-4.41,9.54-3.71,15.91-4.77s10.07-11.41,12.72-13,3.19,5,2.66,10.34-.93,6.23-3.19,8C116.1,259.76,90.36,262.08,91.57,256.5Z"/><path class="cls-7" d="M120.2,309.53c4.58,7.32,13.79,12.2,17.51,11.67s9.54-5.3,9.54-7.43-3.18,1.06-10.07,1.06S116.65,303.84,120.2,309.53Z"/><path class="cls-7" d="M94.22,297.33C91,302.64,81.49,317,81,320.14s.65,9.23-2.62,11.67-7.18.12-8.52-.54c-2.78-1.35,3.62,8.51,9.39,9.52,7.49,1.31,5.46-8.45,5.46-15.35S99,301.58,99,301.58Z"/><path class="cls-7" d="M58.59,175.41c13.38,8.49,45.34,10.26,63.56-2.21,14.24-9.74,14.46-22.36,11.3-18.1-6.55,8.85-12.41,12.16-21.63,16-12,5-34.86,4.34-48-1.29C55.2,166.08,51.76,171.08,58.59,175.41Z"/><path class="cls-7" d="M67.85,192c4.5,3.94,18.93,7.12,27.37,7.5s19.5-7.13,19.69-8.81-2.25.37-11.63,1.87S72.35,193.52,67.85,192Z"/></g><g id="hi"><path class="cls-8" d="M49.36,135.77a3.65,3.65,0,0,1-2.11,2.86,9,9,0,0,1-4.78,1c-3.68-.2-6.56-2.24-6.43-4.56a3.65,3.65,0,0,1,2.11-2.87,9.65,9.65,0,0,1,9.42.52A3.64,3.64,0,0,1,49.36,135.77Z"/><path class="cls-8" d="M145.89,135.41a3.64,3.64,0,0,1-1.63,3.16,9,9,0,0,1-4.56,1.73c-3.66.39-6.83-1.16-7.07-3.48s2.52-4.5,6.18-4.89a9,9,0,0,1,4.82.72A3.68,3.68,0,0,1,145.89,135.41Z"/><path class="cls-9" d="M28.91,82.69c-3.28-4.83,1.91-13,3.49-21s2.54-12.39,2.23-18.11,4.44-6,8.57,2.54S45.74,69,41.93,77,32.44,87.9,28.91,82.69Z"/><path class="cls-9" d="M30.18,26.79c-.75-6.34,4.76-8.26,8.26-5.72s4.5,7.29,1,10.79S30.71,31.25,30.18,26.79Z"/><path class="cls-9" d="M47.49,218.32a2,2,0,1,1,2.07,3.17A2,2,0,0,1,47.49,218.32Z"/><path class="cls-9" d="M57.18,208.63c1.33-3.79,4.74-7.77,6.83-9,2.59-1.54,4.68.69,2.7,4.55a17.41,17.41,0,0,1-6.51,6.67C58.29,212,56.28,211.19,57.18,208.63Z"/><path class="cls-9" d="M121.18,252.78c-4.1-.46-3.18-7.31-2.22-9.85s3-3.23,4.6-.69S124.59,253.16,121.18,252.78Z"/><path class="cls-9" d="M147.23,305.51c-2.8-.84-1.15-4.11,1.56-5.22,2-.8,4-.74,4.68.77C154.34,302.89,150.9,306.61,147.23,305.51Z"/><path class="cls-9" d="M67.66,321.7c-1.2-3,2.7-6.35,4.61-5.71s1,4.29,0,5.56-3.85,2-4.61.15Z"/><path class="cls-9" d="M150.08,184.81c-2.58-1.58,1.75-4.29,3.5-4.61s3,.32,2.86,1.91S153.38,186.82,150.08,184.81Z"/><path class="cls-10" d="M101,205.33c-3.86.2-9.42.79-13,2.42-1,1.56.92,5.33,1,7a184.94,184.94,0,0,1,3.84,26.91c.62,1.8,4.45,1.38,5.9,1.64,5.94,0,12.38.44,17.55-3.13,5-3.61,5.46-13.5-.27-16.07a65.11,65.11,0,0,0-6.3-2.59c3.7-1.83,6.67-6.58,5-10.79-1.3-3.81-6-5.1-9.52-5.13C104,205.52,102.12,205.31,101,205.33Zm1.69,6c2.91-.39,5.28,1,4.51,4-.71,2.64-2.84,3.13-5.21,3.39-2.82.32-6.54-1.12-5.63-4.36C96.9,211.39,100,211.36,102.64,211.37Zm3.71,16.21c4-.19,7.29,2.86,5.59,6.89-1.58,3.45-5,4-8.39,3-2.73-.9-4.88-2.58-4.08-5.63C100.2,228.38,103.22,227.6,106.35,227.58Z"/></g><g id="line"><path class="cls-11" d="M24.52,0a59.26,59.26,0,0,0-12,1.24C9.11,2,6.41,3.06,5,5.22a4.86,4.86,0,0,0-.67,3.84A8.8,8.8,0,0,0,6.62,12.9c6.38,6.71,8.22,15.8,7.62,26.2s-3.7,22-7,33.13C.65,94.69-3.86,119.4,4.7,144.52c9.52,27.93,33.93,43,59.58,48.34s52.65,1.19,68.35-9.78c38.44-26.84,47.06-82.71,6.07-131.7C100.36,5.56,57.75,2.81,38.78.73A114.56,114.56,0,0,0,24.52,0Zm0,3.42a112.25,112.25,0,0,1,13.86.68c19.2,2.1,60.09,4.53,97.68,49.46,40,47.83,31.42,101-5.41,126.72-14.51,10.14-40.89,14.4-65.71,9.24s-48-19.5-57-46.11c-8.22-24.13-3.93-48,2.6-70.23,3.3-11.2,6.48-23,7.12-33.89S16.31,18.15,9.09,10.56A5.82,5.82,0,0,1,7.58,8.24a1.14,1.14,0,0,1,.19-1.11c.51-.76,2.46-1.88,5.47-2.57A56.9,56.9,0,0,1,24.55,3.43Z"/><path class="cls-11" d="M112.43,196.4l1,1.38c22.69,31.22,16.24,64.41,6.36,79.73l-.91,1.43,2.85,1.85.92-1.43C137.82,257.78,134.9,211.94,112.43,196.4Z"/><path class="cls-11" d="M70.57,221.2l-2.46,2.37-.48.05c.82,3.55,1.11,11.14,1.21,18.65s0,15,.42,19.13c.75,8.28,4.55,16.09,16.24,29,5.87,6.48,16.59,16.82,26.79,25.78,5.1,4.48,10.07,8.61,14.25,11.73,2.09,1.56,4,2.87,5.62,3.86a13.78,13.78,0,0,0,4.29,1.93c2.71.53,5.31-1,7.92-3a51.7,51.7,0,0,0,7.8-8.09c5-6.27,9.29-13.3,10.42-17.57A9.59,9.59,0,0,0,159,294.73a10.38,10.38,0,0,0-10-1.53,49.39,49.39,0,0,1-4.87,1.8c-2.2.7-1.9-.15-3.4-1.56-1-.92-2.29-2.1-3.83-3.46-3.07-2.73-7-6.17-11.15-9.59s-8.32-6.83-11.89-9.52c-4.63-3.93-9.62-6.82-10.93-2.57l1.62.53a16.79,16.79,0,0,1,2.67,1.49c1.27.84,2.85,2,4.6,3.27,3.49,2.63,7.68,6,11.76,9.42s8,6.81,11.07,9.51c1.52,1.35,2.8,2.52,3.75,3.41s1.66,1.65,1.63,1.61a3.16,3.16,0,0,0,2.55,1.13,8.94,8.94,0,0,0,2.46-.39,47.36,47.36,0,0,0,5.25-1.94,7.26,7.26,0,0,1,6.7,1.11,5.9,5.9,0,0,1,2.31,6.66c-.77,2.93-5,10.32-9.79,16.32a48.83,48.83,0,0,1-7.25,7.54c-2.29,1.82-4.28,2.52-5.16,2.35a13.14,13.14,0,0,1-3.19-1.5c-1.49-.9-3.3-2.15-5.33-3.67-4.07-3-9-7.12-14-11.56C104.42,304.7,93.72,294.36,88,288.08c-11.48-12.64-14.69-19.51-15.37-27-.34-3.73-.31-11.31-.41-18.87S72,227.2,71,222.86Z"/><path class="cls-11" d="M109.49,268.74l-1.42.93,2.61,1.88.67,0a21.58,21.58,0,0,1,6.38-3.69C115.34,263.51,112.82,266.57,109.49,268.74Z"/><path class="cls-11" d="M78.32,279.16l-.39,1.65A45.85,45.85,0,0,1,75.45,287c-1.32,2.86-3,6.27-4.76,9.61s-3.53,6.61-5,9.2a45,45,0,0,1-3.22,5,21.54,21.54,0,0,0-4.34,5.33c-1.29,2.49-1.93,5.89-1.22,10.7,1.38,9.44,5.14,15.92,11.74,20,3.64,2.27,9.42,3.26,14.62,3a17.56,17.56,0,0,0,7-1.6,6.1,6.1,0,0,0,3.6-5.25,45.15,45.15,0,0,0-1.1-7.62c-.43-2.47-.59-4.73,0-6.41a43.38,43.38,0,0,1,2-3.94c1.06-1.91,2.41-4.22,3.81-6.53s2.86-4.62,4.11-6.5a39.37,39.37,0,0,1,2.85-3.91l1.17-1.23-2.47-2.34-1.17,1.23a35.37,35.37,0,0,0-3.21,4.36c-1.3,1.94-2.77,4.28-4.19,6.63s-2.79,4.68-3.87,6.64a34.35,34.35,0,0,0-2.24,4.46c-.94,2.68-.6,5.5-.14,8.12a48.44,48.44,0,0,1,1,7c0,1-.45,1.57-1.75,2.23a14.86,14.86,0,0,1-5.65,1.23c-4.57.23-10.11-.91-12.66-2.49-5.76-3.58-8.87-8.8-10.17-17.62-.63-4.32-.06-6.83.88-8.66a19.85,19.85,0,0,1,3.78-4.53,33.34,33.34,0,0,0,3.7-5.6c1.55-2.66,3.36-6,5.12-9.35s3.47-6.82,4.83-9.76a40.62,40.62,0,0,0,2.7-6.83l-.57-.59Z"/><path class="cls-11" d="M66.63,191.06l-1.53-1c-7,1.52-10.5,7.19-14.17,12.25-8.67,11.93-21.81,23.27-26.53,28.07-2.77,2.82-3.91,7-1.81,10.22A8.2,8.2,0,0,0,27.82,244a21.45,21.45,0,0,0,9-.31c6.91-1.47,15.15-6.25,22.18-11,3.51-2.39,6.7-4.78,9.2-6.78,4.48-3.69,5.76-6,3.8-8L70.86,219a54.47,54.47,0,0,1-4.76,4.13c-2.43,2-5.57,4.3-9,6.63-6.86,4.67-15,9.25-21,10.51a18.18,18.18,0,0,1-7.56.31,4.71,4.71,0,0,1-3.14-1.84c-1-1.53-.54-4,1.4-6,4.36-4.44,17.83-16,26.85-28.46,3.76-5.17,6.66-9.72,12.15-10.91l1.66-.37Z"/><path class="cls-11" d="M158.78,173.23c-4.78,1,.7-.54-28.85,8.09l-.56,1.12-.12,2.62,1.63-.48c29.56-8.62,23.66-7,28.61-8,1.94-.42,3.9.17,4.48,1.1a2.76,2.76,0,0,1,.11,2.37A15.36,15.36,0,0,1,161,185.2c-3.29,3.9-9.89,9.17-17.12,13.67s-15.18,8.29-21,9.54l-1.67.36.71,3.33,1.66-.36c6.59-1.41,14.68-5.34,22.13-10s14.18-9.93,17.92-14.37a17.94,17.94,0,0,0,3.8-6.43,6.34,6.34,0,0,0-.49-5.1C165.16,173.13,161.7,172.61,158.78,173.23Z"/><path class="cls-12" d="M57.18,81.75a9,9,0,0,0-4.08.1C47.93,83.2,44.56,89,45.3,95.74a1.27,1.27,0,1,0,2.53-.28c-.63-5.8,2.23-10.18,5.91-11.14A7.57,7.57,0,0,1,60,85.69c2.3,1.55,4.75,4.4,6.95,8.94a1.27,1.27,0,1,0,2.29-1.11c-2.33-4.84-5-8.06-7.81-10A11.81,11.81,0,0,0,57.18,81.75Z"/><path class="cls-12" d="M116.27,80.63a8.78,8.78,0,0,0-6.93,3.71c-1.76,2.37-2.77,5.78-2.68,10.15a1.24,1.24,0,0,0,.39.9,1.28,1.28,0,0,0,2.16-1c-.08-4,.84-6.77,2.18-8.58a6.08,6.08,0,0,1,4.93-2.67c3.73-.07,8.32,3.35,10,11a1.24,1.24,0,0,0,.56.8,1.27,1.27,0,0,0,1.93-1.35C127,85.18,121.55,80.55,116.27,80.63Z"/><path class="cls-11" d="M75.71,137.24c-2.72-.05-5.07-.05-6.89,0-.92,0-1.7.09-2.34.16a5.35,5.35,0,0,0-1.61.35l-.69.3-.07.76c-.76,8.71,1.61,16.91,6.84,23.06s13.28,10.21,23.64,10.76c12.24.65,20.38-6,25-13.22A34.06,34.06,0,0,0,124,149.07a18.12,18.12,0,0,0,.53-4.07,4.39,4.39,0,0,0-.76-3,2.41,2.41,0,0,0-1.53-.86,20.81,20.81,0,0,0-2.07-.49c-1.66-.32-3.87-.63-6.47-.93-5.2-.61-12-1.18-18.8-1.63S81.15,137.35,75.71,137.24Zm0,2.55c5.38.11,12.24.43,19,.88s13.54,1,18.68,1.61c2.56.3,4.73.61,6.28.9a17.43,17.43,0,0,1,1.8.43c.4.13.6.41.29,0A5.23,5.23,0,0,1,122,145a15.65,15.65,0,0,1-.47,3.49,31.67,31.67,0,0,1-4.09,9.56c-4.23,6.64-11.39,12.64-22.66,12-9.77-.52-17.09-4.27-21.84-9.86-4.56-5.37-6.62-12.53-6.16-20.28h0c.54-.06,1.26-.1,2.13-.13C70.64,139.74,73,139.74,75.66,139.79Z"/><path class="cls-11" d="M96.85,145.17c-10.42-.85-21.88,2-28.41,11l-.75,1,2.07,1.5.74-1c5.85-8.06,16.34-10.75,26.15-9.95s18.68,5.28,21.06,10.34l.55,1.15L119.6,158l.42-1C116.91,150.35,107.27,146,96.85,145.17Z"/><path class="cls-11" d="M105.23,204.08a43.29,43.29,0,0,0-8.44.2,40.68,40.68,0,0,0-7.09,1.38,10.51,10.51,0,0,0-2.28,1,2.88,2.88,0,0,0-.85.73,1.79,1.79,0,0,0-.25,1.59c2.32,6.23,5.18,28.3,5,33.72l0,1.15,1.13.17c12,1.81,19.38.65,23.8-2.08a11,11,0,0,0,5.31-10.65,10.55,10.55,0,0,0-4-7.63,18.15,18.15,0,0,0-4.81-2.43c4.42-4,4.95-11.4-.2-14.89A15.52,15.52,0,0,0,105.23,204.08Zm-.22,2.64a13.8,13.8,0,0,1,6,1.68c4.11,2.78,3.35,9.44-1.12,12l-2.29,1.33,2.46,1a23,23,0,0,1,5.82,2.9,7.62,7.62,0,0,1,3,5.85,8.17,8.17,0,0,1-4.1,8.26c-3.48,2.14-10.12,3.27-21.1,1.77.05-7.08-2.29-25.34-4.86-32.74a8.23,8.23,0,0,1,1.61-.65,37.24,37.24,0,0,1,6.61-1.28A39.84,39.84,0,0,1,105,206.72Z"/><path class="cls-11" d="M100.78,210.3a7.26,7.26,0,0,0-4.21,1.84,4.64,4.64,0,0,0-1.33,3.7,4.37,4.37,0,0,0,2.45,3.39,7.86,7.86,0,0,0,4.7.68,8.7,8.7,0,0,0,4.46-1.77,4.18,4.18,0,0,0,1.41-4.21,5,5,0,0,0-2.94-3.25A8.14,8.14,0,0,0,100.78,210.3Zm.4,2.51h0a5.74,5.74,0,0,1,3.13.22,2.23,2.23,0,0,1,1.46,1.57c.19.69,0,1.06-.59,1.59a6.43,6.43,0,0,1-3.15,1.19,5.46,5.46,0,0,1-3.18-.41,1.71,1.71,0,0,1-1.09-1.36,1.86,1.86,0,0,1,.58-1.65A5,5,0,0,1,101.18,212.81Z"/><path class="cls-11" d="M104.78,226.67a7.91,7.91,0,0,0-4.86,2,6,6,0,0,0-1.73,4.11c-.1,3.45,3.44,6.47,8.15,6.31a8.06,8.06,0,0,0,5.58-2.22,5.5,5.5,0,0,0,1.53-4.92,6.69,6.69,0,0,0-3.24-4.27A7.52,7.52,0,0,0,104.78,226.67Zm.5,2.48a5,5,0,0,1,3.61.69,4.33,4.33,0,0,1,2.06,2.59,2.86,2.86,0,0,1-.85,2.64,5.6,5.6,0,0,1-3.85,1.45c-3.58.12-5.55-2.19-5.51-3.68a3.26,3.26,0,0,1,1-2.37,5.39,5.39,0,0,1,3.4-1.3Z"/><path class="cls-12" d="M61,107.74c-2.67.09-5.07,1.92-6.43,4.71S52.7,119,53.22,123.83a2.19,2.19,0,0,0,.79,1.43,2.12,2.12,0,0,0,3.44-1.9c-.46-4.25.08-7.28.94-9S60.21,112,61.14,112s2.22.51,3.5,2.24a17.37,17.37,0,0,1,2.83,8.55,2.15,2.15,0,0,0,.77,1.44,2.2,2.2,0,0,0,1.56.47,2.13,2.13,0,0,0,1.9-2.33,21.42,21.42,0,0,0-3.64-10.66C66.19,109.18,63.65,107.64,61,107.74Z"/><path class="cls-12" d="M119.24,107.15a7.89,7.89,0,0,0-6.49,4.81c-1.31,2.8-1.62,6.55-.63,11.13a2.12,2.12,0,1,0,4.15-.91c-.85-3.92-.46-6.73.33-8.42s1.83-2.31,2.91-2.37,2.43.45,3.72,2.17,2.39,4.61,2.58,8.85a2.19,2.19,0,0,0,.69,1.48,2.13,2.13,0,0,0,3.56-1.67c-.22-4.88-1.49-8.62-3.43-11.21A8.77,8.77,0,0,0,119.24,107.15Z"/></g></g></svg>